<svg width="112" height="112" viewBox="0 0 112 112" fill="none" xmlns="http://www.w3.org/2000/svg">
<g clip-path="url(#clip0_151_1761)">
<mask id="mask0_151_1761" style="mask-type:luminance" maskUnits="userSpaceOnUse" x="0" y="0" width="112" height="112">
<path d="M111.618 0.236572H0.68042V111.174H111.618V0.236572Z" fill="white" style="fill:white;fill-opacity:1;"/>
</mask>
<g mask="url(#mask0_151_1761)">
<path d="M27.1252 42.4899C27.1252 42.4899 29.3024 14.4365 57.0646 14.4365C84.8267 14.4365 87.0732 42.6009 87.0732 42.6009C87.0732 42.6009 100.15 41.4915 100.15 53.1399C100.15 64.8161 87.2812 63.0273 87.2812 63.0273C87.2812 63.0273 85.1318 93.3549 58.9644 93.3549C29.6907 93.3549 26.5151 64.5111 26.5151 64.5111C26.5151 64.5111 14.0346 65.5095 12.7449 55.8441C11.2473 44.4729 27.1252 42.476 27.1252 42.476" fill="#FFD6C0" style="fill:#FFD6C0;fill:color(display-p3 1.0000 0.8392 0.7529);fill-opacity:1;"/>
<path d="M89.8465 54.9984L90.4844 54.4299L90.6231 54.305C90.7895 54.1664 90.4428 54.4437 90.5953 54.3328L90.9281 54.097C91.3904 53.7735 91.8803 53.4869 92.3981 53.2373L92.7586 53.0709L92.8279 53.0431L92.8973 53.0154L93.7016 52.7242C94.2563 52.5578 94.811 52.4283 95.3656 52.3359C96.0867 52.225 96.5444 51.282 96.3364 50.6302C96.0867 49.8537 95.4072 49.5209 94.6307 49.6595C92.0939 50.0842 89.7421 51.2577 87.8773 53.0293C87.3504 53.5285 87.3227 54.4992 87.8773 54.9707C88.432 55.4699 89.2641 55.5254 89.8188 54.9707L89.8465 54.9984ZM18.0143 53.3898L18.2084 53.4037C17.834 53.3759 18.0559 53.3898 18.153 53.4037L18.569 53.473L19.2901 53.6672L19.6784 53.792L19.8448 53.8613C19.8725 53.8613 20.1498 53.9861 19.928 53.889C19.7338 53.7504 19.928 53.8336 19.9696 53.8474L20.1776 53.9306L20.5381 54.1109L21.1899 54.5269L21.5643 54.832C21.9988 55.1833 22.3825 55.567 22.7153 55.983C23.1729 56.5377 24.1991 56.4961 24.6705 55.983C25.2252 55.3867 25.1698 54.624 24.6705 54.0416C22.9715 52.0477 20.5657 50.7902 17.9588 50.5332C17.2377 50.45 16.5444 51.2265 16.5721 51.9199C16.6137 52.738 17.1823 53.2234 17.9588 53.3066M43.3358 50.6718V56.9676C43.3358 57.6886 43.9737 58.382 44.7226 58.3543C45.4714 58.3265 46.1093 57.7441 46.1093 56.9676V50.7134C46.1093 49.9923 45.4714 49.299 44.7226 49.3267C43.9737 49.3544 43.3358 49.9369 43.3358 50.7134M68.907 50.1587L68.699 56.8289C68.699 57.1967 68.8451 57.5494 69.1051 57.8094C69.3652 58.0695 69.7179 58.2156 70.0857 58.2156C70.8623 58.1879 71.4447 57.6054 71.4724 56.8289L71.6804 50.1726C71.6804 49.8048 71.5343 49.4521 71.2743 49.1921C71.0142 48.932 70.6615 48.7859 70.2937 48.7859C69.9259 48.7859 69.5732 48.932 69.3131 49.1921C69.0531 49.4521 68.907 49.8048 68.907 50.1726" fill="black" style="fill:black;fill-opacity:1;"/>
<path d="M42.9754 45.5268C43.3082 45.157 43.6641 44.8057 44.0431 44.4729L44.1679 44.3619L44.2234 44.3203C44.057 44.4452 44.2234 44.3203 44.2511 44.3203L44.4176 44.1817L45.0416 43.7657L45.6517 43.419L45.9845 43.2526L46.1787 43.1694C46.2203 43.1555 46.4006 43.0723 46.2064 43.1694L46.2758 43.1416L46.4144 43.0862L46.775 42.9475L47.5377 42.7395C48.231 42.5731 48.7303 41.7272 48.5084 41.0338C48.2865 40.3405 47.5377 39.8828 46.8027 40.0631C44.5587 40.5984 42.5374 41.8199 41.0201 43.5577C40.5486 44.1123 40.4377 44.986 41.0201 45.4991C41.547 45.9983 42.4761 46.0954 42.9754 45.4991M68.4911 42.9059C69.3231 43.0446 70.1551 43.2433 70.9872 43.5022L71.5418 43.7102L71.8885 43.835L71.9717 43.8627L71.8885 43.8211C71.9163 43.8766 72.152 43.9321 72.2075 43.9598L72.4432 44.0707L73.0811 44.3897C73.719 44.7364 74.6065 44.57 74.9809 43.8905C75.3415 43.1971 75.1612 42.3651 74.4817 41.9907C72.8389 41.098 71.0575 40.4885 69.2121 40.1879C68.8239 40.1463 68.4911 40.1324 68.1444 40.3266C67.8311 40.5098 67.602 40.8085 67.5065 41.1586C67.3678 41.8381 67.7145 42.7534 68.4772 42.8782L68.4911 42.9059Z" fill="black" style="fill:black;fill-opacity:1;"/>
<path d="M51.157 61.4221C56.2326 63.2702 61.7889 63.3191 66.8963 61.5608C68.5881 61.0061 69.3092 63.6686 67.6312 64.2511C62.0487 66.1509 55.987 66.102 50.4359 64.1124C49.7425 63.8489 49.2433 63.1555 49.4652 62.3928C49.6316 61.7134 50.4497 61.1725 51.157 61.4221Z" fill="black" style="fill:black;fill-opacity:1;"/>
<path d="M26.3208 42.4622C26.3208 42.4622 26.5011 47.8843 28.3177 47.7317C30.1204 47.5931 32.5472 30.2729 32.5472 30.2729C32.5472 30.2729 57.6053 36.735 78.5725 29.3715C78.5725 29.3715 80.9576 47.6763 83.2041 47.496C85.1178 47.3296 86.5323 42.5454 86.5323 42.5454C86.5323 42.5731 92.7309 30.6473 85.6725 17.7924C74.6758 -2.24574 44.4314 2.23337 36.5271 17.5012C36.5271 17.5012 28.3454 16.1977 25.0173 26.3069C21.7169 36.4161 26.3208 42.4899 26.3208 42.4899" fill="#1C093F" style="fill:#1C093F;fill:color(display-p3 0.1113 0.0372 0.2469);fill-opacity:1;"/>
</g>
</g>
<defs>
<clipPath id="clip0_151_1761">
<rect width="110.938" height="110.938" fill="white" style="fill:white;fill-opacity:1;" transform="translate(0.68042 0.236572)"/>
</clipPath>
</defs>
</svg>
