<svg width="112" height="112" viewBox="0 0 112 112" fill="none" xmlns="http://www.w3.org/2000/svg">
<g clip-path="url(#clip0_151_1726)">
<mask id="mask0_151_1726" style="mask-type:luminance" maskUnits="userSpaceOnUse" x="0" y="0" width="112" height="112">
<path d="M111.32 0.371338H0.381836V111.309H111.32V0.371338Z" fill="white" style="fill:white;fill-opacity:1;"/>
</mask>
<g mask="url(#mask0_151_1726)">
<path d="M26.8266 42.6247C26.8266 42.6247 29.0038 14.5713 56.766 14.5713C84.5282 14.5713 86.7746 42.7356 86.7746 42.7356C86.7746 42.7356 99.8514 41.6262 99.8514 53.2747C99.8514 64.9509 86.9827 63.162 86.9827 63.162C86.9827 63.162 84.8332 93.4897 58.6658 93.4897C29.3921 93.4897 26.2165 64.6458 26.2165 64.6458C26.2165 64.6458 13.736 65.6443 12.4463 55.9788C10.9487 44.6077 26.8266 42.6108 26.8266 42.6108" fill="#FFD6C0" style="fill:#FFD6C0;fill:color(display-p3 1.0000 0.8392 0.7529);fill-opacity:1;"/>
<path d="M89.5482 55.1329L90.186 54.5644L90.3247 54.4396C90.4911 54.3009 90.1444 54.5782 90.297 54.4673L90.6298 54.2316C91.092 53.908 91.582 53.6214 92.0997 53.3718L92.4603 53.2054L92.5296 53.1777L92.5989 53.1499L93.4032 52.8587C93.9579 52.6923 94.5126 52.5629 95.0673 52.4704C95.7884 52.3595 96.246 51.4165 96.038 50.7648C95.7884 49.9882 95.1089 49.6554 94.3323 49.794C91.7956 50.2187 89.4437 51.3922 87.579 53.1638C87.052 53.663 87.0243 54.6337 87.579 55.1052C88.1337 55.6044 88.9657 55.6599 89.5204 55.1052L89.5482 55.1329ZM17.7159 53.5243L17.9101 53.5382C17.5357 53.5105 17.7575 53.5243 17.8546 53.5382L18.2706 53.6075L18.9917 53.8017L19.38 53.9265L19.5464 53.9958C19.5742 53.9958 19.8515 54.1206 19.6296 54.0235C19.4355 53.8849 19.6296 53.9681 19.6712 53.9819L19.8792 54.0652L20.2398 54.2454L20.8915 54.6614L21.266 54.9665C21.7005 55.3178 22.0841 55.7015 22.4169 56.1175C22.8746 56.6722 23.9007 56.6306 24.3722 56.1175C24.9269 55.5212 24.8714 54.7585 24.3722 54.1761C22.6732 52.1823 20.2674 50.9247 17.6605 50.6677C16.9394 50.5845 16.246 51.361 16.2738 52.0544C16.3154 52.8726 16.8839 53.3579 17.6605 53.4411M43.0375 50.8064V57.1021C43.0375 57.8232 43.6754 58.5165 44.4242 58.4888C45.173 58.4611 45.8109 57.8786 45.8109 57.1021V50.848C45.8109 50.1269 45.173 49.4335 44.4242 49.4612C43.6754 49.489 43.0375 50.0714 43.0375 50.848M68.6086 50.2933L68.4006 56.9634C68.4006 57.3312 68.5467 57.6839 68.8068 57.944C69.0669 58.204 69.4196 58.3501 69.7874 58.3501C70.5639 58.3224 71.1463 57.74 71.1741 56.9634L71.3821 50.3071C71.3821 49.9394 71.236 49.5866 70.9759 49.3266C70.7159 49.0665 70.3632 48.9204 69.9954 48.9204C69.6276 48.9204 69.2749 49.0665 69.0148 49.3266C68.7547 49.5866 68.6086 49.9394 68.6086 50.3071" fill="black" style="fill:black;fill-opacity:1;"/>
<path d="M42.6768 45.6616C43.0096 45.2918 43.3655 44.9405 43.7446 44.6077L43.8694 44.4967L43.9248 44.4551C43.7584 44.5799 43.9248 44.4551 43.9526 44.4551L44.119 44.3164L44.743 43.9004L45.3532 43.5537L45.686 43.3873L45.8801 43.3041C45.9217 43.2903 46.102 43.2071 45.9078 43.3041L45.9772 43.2764L46.1158 43.2209L46.4764 43.0823L47.2391 42.8742C47.9325 42.7078 48.4317 41.8619 48.2098 41.1686C47.9879 40.4752 47.2391 40.0176 46.5041 40.1979C44.2601 40.7331 42.2388 41.9547 40.7215 43.6924C40.25 44.2471 40.1391 45.1207 40.7215 45.6338C41.2485 46.133 42.1776 46.2301 42.6768 45.6338M68.1925 43.0407C69.0245 43.1793 69.8565 43.3781 70.6886 43.6369L71.2433 43.845L71.5899 43.9698L71.6731 43.9975L71.5899 43.9559C71.6177 44.0114 71.8534 44.0668 71.9089 44.0946L72.1446 44.2055L72.7825 44.5244C73.4204 44.8711 74.3079 44.7047 74.6823 44.0252C75.0429 43.3319 74.8626 42.4998 74.1831 42.1254C72.5403 41.2327 70.7589 40.6233 68.9136 40.3227C68.5253 40.2811 68.1925 40.2672 67.8458 40.4614C67.5325 40.6445 67.3034 40.9433 67.2079 41.2934C67.0692 41.9729 67.4159 42.8881 68.1786 43.0129L68.1925 43.0407Z" fill="black" style="fill:black;fill-opacity:1;"/>
<path d="M50.8586 61.5567C55.9342 63.4047 61.4905 63.4536 66.5979 61.6953C68.2897 61.1406 69.0108 63.8031 67.3329 64.3856C61.7504 66.2854 55.6887 66.2365 50.1375 64.2469C49.4442 63.9834 48.945 63.2901 49.1668 62.5274C49.3332 61.8479 50.1514 61.3071 50.8586 61.5567Z" fill="black" style="fill:black;fill-opacity:1;"/>
<path d="M26.0222 42.597C26.0222 42.597 26.2025 48.019 28.0191 47.8665C29.8218 47.7278 32.2486 30.4077 32.2486 30.4077C32.2486 30.4077 57.3067 36.8698 78.2739 29.5063C78.2739 29.5063 80.6591 47.811 82.9056 47.6308C84.8192 47.4643 86.2337 42.6802 86.2337 42.6802C86.2337 42.7079 92.4323 30.7821 85.3739 17.9272C74.3772 -2.11097 44.1328 2.36814 36.2285 17.6359C36.2285 17.6359 28.0468 16.3324 24.7187 26.4416C21.4183 36.5508 26.0222 42.6247 26.0222 42.6247" fill="#1C093F" style="fill:#1C093F;fill:color(display-p3 0.1113 0.0372 0.2469);fill-opacity:1;"/>
</g>
</g>
<defs>
<clipPath id="clip0_151_1726">
<rect width="110.938" height="110.938" fill="white" style="fill:white;fill-opacity:1;" transform="translate(0.381836 0.371338)"/>
</clipPath>
</defs>
</svg>
