<svg width="112" height="112" viewBox="0 0 112 112" fill="none" xmlns="http://www.w3.org/2000/svg">
<g clip-path="url(#clip0_151_1714)">
<mask id="mask0_151_1714" style="mask-type:luminance" maskUnits="userSpaceOnUse" x="0" y="0" width="112" height="112">
<path d="M111.558 0.371338H0.620605V111.309H111.558V0.371338Z" fill="white" style="fill:white;fill-opacity:1;"/>
</mask>
<g mask="url(#mask0_151_1714)">
<path d="M27.0654 42.6247C27.0654 42.6247 29.2426 14.5713 57.0047 14.5713C84.7669 14.5713 87.0134 42.7356 87.0134 42.7356C87.0134 42.7356 100.09 41.6262 100.09 53.2747C100.09 64.9509 87.2214 63.162 87.2214 63.162C87.2214 63.162 85.072 93.4897 58.9046 93.4897C29.6308 93.4897 26.4553 64.6458 26.4553 64.6458C26.4553 64.6458 13.9748 65.6443 12.6851 55.9788C11.1874 44.6077 27.0654 42.6108 27.0654 42.6108" fill="#FFD6C0" style="fill:#FFD6C0;fill:color(display-p3 1.0000 0.8392 0.7529);fill-opacity:1;"/>
<path d="M89.7869 55.1329L90.4248 54.5644L90.5635 54.4396C90.7299 54.3009 90.3832 54.5782 90.5357 54.4673L90.8686 54.2316C91.3308 53.908 91.8208 53.6214 92.3385 53.3718L92.699 53.2054L92.7684 53.1777L92.8377 53.1499L93.642 52.8587C94.1967 52.6923 94.7514 52.5629 95.3061 52.4704C96.0272 52.3595 96.4848 51.4165 96.2768 50.7648C96.0272 49.9882 95.3477 49.6554 94.5711 49.794C92.0343 50.2187 89.6825 51.3922 87.8178 53.1638C87.2908 53.663 87.2631 54.6337 87.8178 55.1052C88.3725 55.6044 89.2045 55.6599 89.7592 55.1052L89.7869 55.1329ZM17.9547 53.5243L18.1489 53.5382C17.7744 53.5105 17.9963 53.5243 18.0934 53.5382L18.5094 53.6075L19.2305 53.8017L19.6188 53.9265L19.7852 53.9958C19.8129 53.9958 20.0903 54.1206 19.8684 54.0235C19.6743 53.8849 19.8684 53.9681 19.91 53.9819L20.118 54.0652L20.4785 54.2454L21.1303 54.6614L21.5047 54.9665C21.9392 55.3178 22.3229 55.7015 22.6557 56.1175C23.1133 56.6722 24.1395 56.6306 24.611 56.1175C25.1657 55.5212 25.1102 54.7585 24.611 54.1761C22.9119 52.1823 20.5062 50.9247 17.8992 50.6677C17.1782 50.5845 16.4848 51.361 16.5125 52.0544C16.5541 52.8726 17.1227 53.3579 17.8992 53.4411M43.2763 50.8064V57.1021C43.2763 57.8232 43.9142 58.5165 44.663 58.4888C45.4118 58.4611 46.0497 57.8786 46.0497 57.1021V50.848C46.0497 50.1269 45.4118 49.4335 44.663 49.4612C43.9142 49.489 43.2763 50.0714 43.2763 50.848M68.8474 50.2933L68.6394 56.9634C68.6394 57.3312 68.7855 57.6839 69.0456 57.944C69.3056 58.204 69.6583 58.3501 70.0261 58.3501C70.8027 58.3224 71.3851 57.74 71.4128 56.9634L71.6209 50.3071C71.6209 49.9394 71.4748 49.5866 71.2147 49.3266C70.9546 49.0665 70.6019 48.9204 70.2341 48.9204C69.8664 48.9204 69.5136 49.0665 69.2536 49.3266C68.9935 49.5866 68.8474 49.9394 68.8474 50.3071" fill="black" style="fill:black;fill-opacity:1;"/>
<path d="M46.1343 62.1018C47.8538 66.0123 52.7212 67.7458 56.715 68.0231C60.9861 68.3004 65.174 67.094 68.5853 64.5286C70.0137 63.4608 71.4004 65.8598 69.972 66.9276C65.9411 69.8984 60.9468 71.2582 55.9662 70.7411C51.3068 70.2418 45.746 68.1063 43.7353 63.5163C43.0419 61.8938 45.3993 60.4655 46.1343 62.1295V62.1018Z" fill="black" style="fill:black;fill-opacity:1;"/>
<path d="M68.1816 42.0838C68.3203 41.7787 68.4867 41.5013 68.6808 41.2517L68.4589 41.5291C68.6901 41.2147 68.9582 40.9374 69.2632 40.697L68.9859 40.9328C69.291 40.7017 69.6192 40.5121 69.9705 40.3642L69.6377 40.5029C69.9797 40.3642 70.3264 40.2672 70.6777 40.2117L70.3033 40.2672C70.3033 40.2672 70.442 40.2672 70.5113 40.2394C70.8811 40.2209 71.2047 40.0823 71.482 39.8234C71.7433 39.5674 71.8928 39.2185 71.898 38.8527C71.8842 38.506 71.7593 38.1177 71.482 37.8681C71.2047 37.6185 70.8718 37.4244 70.5113 37.4521C69.5096 37.5177 68.5431 37.8474 67.7101 38.4076C66.8771 38.9678 66.2073 39.7386 65.7687 40.6416C65.63 41.016 65.5191 41.3349 65.63 41.7371C65.7132 42.056 65.9628 42.4027 66.2679 42.5691C66.6007 42.754 66.9567 42.8002 67.3357 42.7078C67.6546 42.5968 68.0291 42.3888 68.1677 42.0699L68.1816 42.0838ZM44.5103 40.4474L44.7599 40.489L44.3855 40.4336C44.9124 40.5075 45.4163 40.6462 45.897 40.8496L45.5642 40.7109C46.0541 40.9143 46.5071 41.1778 46.9232 41.5013L46.6458 41.2795C46.9601 41.5291 47.2513 41.8018 47.5194 42.0976C47.7413 42.375 48.1712 42.4998 48.4902 42.4998C48.8091 42.4998 49.2528 42.3611 49.4886 42.0976C50.0433 41.5152 50.0017 40.7248 49.4886 40.1423C48.8877 39.4675 48.1851 38.9128 47.3808 38.4783C46.4811 38.0348 45.5086 37.7576 44.5103 37.6601C44.1425 37.6601 43.7898 37.8062 43.5297 38.0663C43.2696 38.3263 43.1235 38.6791 43.1235 39.0468C43.1235 39.3935 43.2622 39.7818 43.5396 40.0314C43.8169 40.281 44.1405 40.4151 44.5103 40.4336V40.4474Z" fill="black" style="fill:black;fill-opacity:1;"/>
<path d="M28.6741 45.3426C28.6741 45.3426 47.7276 77.9722 34.0268 84.5036C18.4123 91.9365 4.21228 71.0386 6.02888 55.4518C7.84549 39.865 21.1996 32.7789 21.1996 32.7789C21.1996 32.7789 20.3953 19.605 33.9575 11.9226C47.5196 4.24016 57.0325 12.5328 57.0325 12.5328C57.0325 12.5328 68.2095 4.3511 78.5267 10.633C88.8717 16.9148 88.5943 30.99 88.5943 30.99C88.5943 30.99 107.648 30.2135 107.523 53.8293C107.412 74.8659 93.6143 85.6407 84.2262 83.7825C69.6933 80.912 85.9457 43.2625 85.9457 43.2625C85.9457 43.2625 65.9769 44.7047 58.0171 29.742C58.0171 29.742 52.4702 37.993 44.5659 41.6955C39.5403 43.8871 34.152 45.1284 28.6741 45.3565V45.3426Z" fill="#1C093F" style="fill:#1C093F;fill:color(display-p3 0.1113 0.0372 0.2469);fill-opacity:1;"/>
</g>
</g>
<defs>
<clipPath id="clip0_151_1714">
<rect width="110.938" height="110.938" fill="white" style="fill:white;fill-opacity:1;" transform="translate(0.620605 0.371338)"/>
</clipPath>
</defs>
</svg>
