<svg width="33" height="33" viewBox="0 0 33 33" fill="none" xmlns="http://www.w3.org/2000/svg">
<path d="M12.1113 11.2832H18.3768C19.7657 11.2832 20.8923 12.5332 20.8923 13.7986C20.8923 15.1876 19.7657 16.3142 18.3768 16.3142H12.1113V11.2832Z" stroke="#40234F" style="stroke:#40234F;stroke:color(display-p3 0.2502 0.1370 0.3111);stroke-opacity:1;" stroke-width="1.60495" stroke-miterlimit="10" stroke-linecap="round" stroke-linejoin="round"/>
<path d="M12.1113 16.2988H19.2719C20.8614 16.2988 22.1423 17.4254 22.1423 18.8143C22.1423 20.2032 20.8614 21.3298 19.2719 21.3298H12.1113V16.2988Z" stroke="#40234F" style="stroke:#40234F;stroke:color(display-p3 0.2502 0.1370 0.3111);stroke-opacity:1;" stroke-width="1.60495" stroke-miterlimit="10" stroke-linecap="round" stroke-linejoin="round"/>
<path d="M16.4941 21.3142V23.8297" stroke="#40234F" style="stroke:#40234F;stroke:color(display-p3 0.2502 0.1370 0.3111);stroke-opacity:1;" stroke-width="1.60495" stroke-miterlimit="10" stroke-linecap="round" stroke-linejoin="round"/>
<path d="M13.3613 21.3142V23.8297" stroke="#40234F" style="stroke:#40234F;stroke:color(display-p3 0.2502 0.1370 0.3111);stroke-opacity:1;" stroke-width="1.60495" stroke-miterlimit="10" stroke-linecap="round" stroke-linejoin="round"/>
<path d="M16.4941 8.76782V11.2833" stroke="#40234F" style="stroke:#40234F;stroke:color(display-p3 0.2502 0.1370 0.3111);stroke-opacity:1;" stroke-width="1.60495" stroke-miterlimit="10" stroke-linecap="round" stroke-linejoin="round"/>
<path d="M13.3613 8.76782V11.2833" stroke="#40234F" style="stroke:#40234F;stroke:color(display-p3 0.2502 0.1370 0.3111);stroke-opacity:1;" stroke-width="1.60495" stroke-miterlimit="10" stroke-linecap="round" stroke-linejoin="round"/>
<path d="M14.4879 11.2832H10.1052" stroke="#40234F" style="stroke:#40234F;stroke:color(display-p3 0.2502 0.1370 0.3111);stroke-opacity:1;" stroke-width="1.60495" stroke-miterlimit="10" stroke-linecap="round" stroke-linejoin="round"/>
<path d="M14.4879 21.3142H10.1052" stroke="#40234F" style="stroke:#40234F;stroke:color(display-p3 0.2502 0.1370 0.3111);stroke-opacity:1;" stroke-width="1.60495" stroke-miterlimit="10" stroke-linecap="round" stroke-linejoin="round"/>
<path d="M16.1238 29.4982C23.5105 29.4982 29.4985 23.5102 29.4985 16.1236C29.4985 8.73706 23.5105 2.74902 16.1238 2.74902C8.73729 2.74902 2.74927 8.73706 2.74927 16.1236C2.74927 23.5102 8.73729 29.4982 16.1238 29.4982Z" stroke="#40234F" style="stroke:#40234F;stroke:color(display-p3 0.2502 0.1370 0.3111);stroke-opacity:1;" stroke-width="1.60495" stroke-miterlimit="10"/>
</svg>
