<svg width="150" height="41" viewBox="0 0 150 41" fill="none" xmlns="http://www.w3.org/2000/svg">
<path d="M23.7934 8.63574H27.5083V31.6094H23.7934V8.63574Z" fill="#2D344D" style="fill:#2D344D;fill:color(display-p3 0.1765 0.2039 0.3020);fill-opacity:1;"/>
<path d="M40.4298 24.3292C40.4298 27.8885 37.5226 28.2121 36.5535 28.2121C34.2923 28.2121 33.9692 26.1089 33.9692 24.9764V16.0781H30.2544V24.8146C30.2544 26.9178 30.9004 28.8592 32.1926 29.9918C33.3232 31.1243 34.7768 31.6096 36.5535 31.6096C37.8456 31.6096 39.4607 31.286 40.4298 30.3153V31.6096H44.1447V16.0781H40.4298V24.3292Z" fill="#2D344D" style="fill:#2D344D;fill:color(display-p3 0.1765 0.2039 0.3020);fill-opacity:1;"/>
<path d="M51.4142 10.4155H47.6994V16.0781H44.9536V19.6374H47.6994V31.6095H51.4142V19.6374H54.16V16.0781H51.4142V10.4155Z" fill="#2D344D" style="fill:#2D344D;fill:color(display-p3 0.1765 0.2039 0.3020);fill-opacity:1;"/>
<path d="M65.7882 26.9177C64.9806 27.5648 63.85 28.0502 62.7194 28.0502C60.1352 28.0502 58.3585 26.1087 58.3585 23.5201C58.3585 20.9316 60.1352 19.1519 62.7194 19.1519C63.85 19.1519 64.9806 19.4755 65.7882 20.2844L66.2727 20.7698L68.857 18.343L68.2109 17.8576C66.7573 16.5633 64.8191 15.7544 62.7194 15.7544C58.197 15.7544 54.8052 19.1519 54.8052 23.6819C54.8052 28.2119 58.197 31.6095 62.7194 31.6095C64.8191 31.6095 66.7573 30.8005 68.2109 29.5062L68.857 29.0209L66.2727 26.4323L65.7882 26.9177Z" fill="#2D344D" style="fill:#2D344D;fill:color(display-p3 0.1765 0.2039 0.3020);fill-opacity:1;"/>
<path d="M81.9394 17.3722C80.8087 16.2397 79.6781 15.7543 77.9015 15.7543C76.6093 15.7543 75.3172 16.0779 74.3481 17.0486V8.63574H70.6333V31.6094H74.3481V23.0347C74.3481 19.4754 76.7709 19.1519 77.74 19.1519C80.0012 19.1519 79.8397 21.2551 79.8397 22.3876V31.4476H83.5545V22.5494C83.5545 20.4462 83.07 18.5047 81.9394 17.3722Z" fill="#2D344D" style="fill:#2D344D;fill:color(display-p3 0.1765 0.2039 0.3020);fill-opacity:1;"/>
<path d="M62.5574 26.2704C63.9846 26.2704 65.1416 25.1115 65.1416 23.6818C65.1416 22.2522 63.9846 21.0933 62.5574 21.0933C61.1301 21.0933 59.9731 22.2522 59.9731 23.6818C59.9731 25.1115 61.1301 26.2704 62.5574 26.2704Z" fill="#2D344D" style="fill:#2D344D;fill:color(display-p3 0.1765 0.2039 0.3020);fill-opacity:1;"/>
<path d="M18.6258 25.9471C17.3337 27.2414 15.3955 28.0503 13.2958 28.0503C9.25795 28.0503 6.35067 24.8146 6.35067 20.4463C6.35067 16.0781 9.25795 12.8424 13.4574 12.8424C15.3955 12.8424 17.3337 13.6513 18.7874 15.1074L19.2719 15.5927L21.6946 13.1659L21.2101 12.6806C19.1104 10.5774 16.3646 9.44485 13.4574 9.44485C7.31976 9.28306 2.79733 14.1367 2.79733 20.4463C2.79733 26.756 7.31976 31.6096 13.2958 31.6096C16.2031 31.6096 19.1104 30.4771 21.0486 28.3739L21.5331 27.8885L19.1104 25.4617L18.6258 25.9471Z" fill="#2D344D" style="fill:#2D344D;fill:color(display-p3 0.1765 0.2039 0.3020);fill-opacity:1;"/>
<path d="M129.551 12.0049C131.391 12.0049 132.471 13.3749 132.471 15.6249C132.471 17.8749 131.391 19.2449 129.551 19.2449C127.731 19.2449 126.641 17.8949 126.641 15.6249C126.641 13.3549 127.731 12.0049 129.551 12.0049ZM129.551 18.1649C130.671 18.1649 131.331 17.3849 131.331 15.6249C131.331 13.8649 130.671 13.0849 129.551 13.0849C128.441 13.0849 127.781 13.8649 127.781 15.6249C127.781 17.3849 128.441 18.1649 129.551 18.1649Z" fill="#2D344D" style="fill:#2D344D;fill:color(display-p3 0.1765 0.2039 0.3020);fill-opacity:1;"/>
<path d="M124.945 17.835C125.365 17.835 125.685 18.125 125.685 18.535C125.685 18.945 125.365 19.245 124.945 19.245C124.525 19.245 124.215 18.945 124.215 18.535C124.215 18.125 124.525 17.835 124.945 17.835Z" fill="#2D344D" style="fill:#2D344D;fill:color(display-p3 0.1765 0.2039 0.3020);fill-opacity:1;"/>
<path d="M120.809 14.465C122.089 14.465 123.169 15.325 123.169 16.775C123.169 18.265 122.039 19.245 120.559 19.245C119.219 19.245 117.989 18.495 117.829 16.975H118.969C119.129 17.775 119.779 18.175 120.549 18.175C121.429 18.175 122.019 17.565 122.019 16.765C122.019 15.935 121.409 15.405 120.569 15.405C119.869 15.405 119.409 15.725 119.149 16.145H118.069L118.929 12.125H122.839V13.205H119.779L119.419 14.905C119.769 14.635 120.209 14.465 120.809 14.465Z" fill="#2D344D" style="fill:#2D344D;fill:color(display-p3 0.1765 0.2039 0.3020);fill-opacity:1;"/>
<path d="M114.245 11.4248L112.215 19.1248H111.075L113.105 11.4248H114.245Z" fill="#2D344D" style="fill:#2D344D;fill:color(display-p3 0.1765 0.2039 0.3020);fill-opacity:1;"/>
<path d="M104.825 12.0049C106.275 12.0049 107.485 12.9749 107.485 14.5649C107.485 15.8849 106.605 16.9549 104.975 19.1249H103.645L105.585 16.5849C105.265 16.7549 104.935 16.8649 104.495 16.8649C103.295 16.8649 102.155 16.0649 102.155 14.5549C102.155 13.0149 103.335 12.0049 104.825 12.0049ZM104.815 15.9949C105.705 15.9949 106.345 15.4449 106.345 14.5449C106.345 13.6449 105.675 13.0849 104.825 13.0849C103.955 13.0849 103.295 13.6549 103.295 14.5549C103.295 15.4649 103.965 15.9949 104.815 15.9949Z" fill="#2D344D" style="fill:#2D344D;fill:color(display-p3 0.1765 0.2039 0.3020);fill-opacity:1;"/>
<path d="M100.961 17.835C101.381 17.835 101.701 18.125 101.701 18.535C101.701 18.945 101.381 19.245 100.961 19.245C100.541 19.245 100.231 18.945 100.231 18.535C100.231 18.125 100.541 17.835 100.961 17.835Z" fill="#2D344D" style="fill:#2D344D;fill:color(display-p3 0.1765 0.2039 0.3020);fill-opacity:1;"/>
<path d="M99.1138 16.455V17.515H98.1038V19.125H96.9738V17.515L93.3638 17.525V16.455L96.4238 12.125H98.1038V16.455H99.1138ZM94.5938 16.455H96.9738V13.175H96.8838L94.5938 16.455Z" fill="#2D344D" style="fill:#2D344D;fill:color(display-p3 0.1765 0.2039 0.3020);fill-opacity:1;"/>
<path d="M97.5303 22.125L98.9102 25.0889L102.02 25.5649L99.7751 27.8582L100.311 31.125L97.5303 29.5889L94.75 31.125L95.2649 27.8582L93.02 25.5649L96.1298 25.0889L97.5303 22.125Z" fill="#2D344D" style="fill:#2D344D;fill:color(display-p3 0.1765 0.2039 0.3020);fill-opacity:1;"/>
<path d="M107.53 22.125L108.91 25.0889L112.02 25.5649L109.775 27.8582L110.311 31.125L107.53 29.5889L104.75 31.125L105.265 27.8582L103.02 25.5649L106.13 25.0889L107.53 22.125Z" fill="#2D344D" style="fill:#2D344D;fill:color(display-p3 0.1765 0.2039 0.3020);fill-opacity:1;"/>
<path d="M117.53 22.125L118.91 25.0889L122.02 25.5649L119.775 27.8582L120.311 31.125L117.53 29.5889L114.75 31.125L115.265 27.8582L113.02 25.5649L116.13 25.0889L117.53 22.125Z" fill="#2D344D" style="fill:#2D344D;fill:color(display-p3 0.1765 0.2039 0.3020);fill-opacity:1;"/>
<path d="M127.53 22.125L128.91 25.0889L132.02 25.5649L129.775 27.8582L130.311 31.125L127.53 29.5889L124.75 31.125L125.265 27.8582L123.02 25.5649L126.13 25.0889L127.53 22.125Z" fill="#2D344D" style="fill:#2D344D;fill:color(display-p3 0.1765 0.2039 0.3020);fill-opacity:1;"/>
<path d="M137.53 22.125L138.91 25.0889L142.02 25.5649L139.775 27.8582L140.311 31.125L137.53 29.5889L134.75 31.125L135.265 27.8582L133.02 25.5649L136.13 25.0889L137.53 22.125Z" fill="#2D344D" style="fill:#2D344D;fill:color(display-p3 0.1765 0.2039 0.3020);fill-opacity:1;"/>
</svg>
