<svg width="34" height="33" viewBox="0 0 34 33" fill="none" xmlns="http://www.w3.org/2000/svg">
<path d="M27.7205 18.7988C29.1979 18.7988 30.3955 17.6012 30.3955 16.1239C30.3955 14.6466 29.1979 13.449 27.7205 13.449C26.2433 13.449 25.0457 14.6466 25.0457 16.1239C25.0457 17.6012 26.2433 18.7988 27.7205 18.7988Z" stroke="white" style="stroke:white;stroke-opacity:1;" stroke-width="1.60495" stroke-linecap="round" stroke-linejoin="round"/>
<path d="M27.7205 8.09887C29.1979 8.09887 30.3955 6.90126 30.3955 5.42395C30.3955 3.94663 29.1979 2.74902 27.7205 2.74902C26.2433 2.74902 25.0457 3.94663 25.0457 5.42395C25.0457 6.90126 26.2433 8.09887 27.7205 8.09887Z" stroke="white" style="stroke:white;stroke-opacity:1;" stroke-width="1.60495" stroke-linecap="round" stroke-linejoin="round"/>
<path d="M27.7205 29.4983C29.1979 29.4983 30.3955 28.3007 30.3955 26.8233C30.3955 25.3461 29.1979 24.1484 27.7205 24.1484C26.2433 24.1484 25.0457 25.3461 25.0457 26.8233C25.0457 28.3007 26.2433 29.4983 27.7205 29.4983Z" stroke="white" style="stroke:white;stroke-opacity:1;" stroke-width="1.60495" stroke-linecap="round" stroke-linejoin="round"/>
<path d="M6.32117 18.7988C7.79848 18.7988 8.99608 17.6012 8.99608 16.1239C8.99608 14.6466 7.79848 13.449 6.32117 13.449C4.84385 13.449 3.64624 14.6466 3.64624 16.1239C3.64624 17.6012 4.84385 18.7988 6.32117 18.7988Z" stroke="white" style="stroke:white;stroke-opacity:1;" stroke-width="1.60495" stroke-linecap="round" stroke-linejoin="round"/>
<path d="M8.99609 16.1238H25.0456" stroke="white" style="stroke:white;stroke-opacity:1;" stroke-width="1.60495" stroke-linecap="round" stroke-linejoin="round"/>
<path d="M25.0455 5.42407H19.6957C17.0208 5.42407 15.6833 6.76153 15.6833 9.43641V22.811C15.6833 25.4859 17.0208 26.8234 19.6957 26.8234H25.0455" stroke="white" style="stroke:white;stroke-opacity:1;" stroke-width="1.60495" stroke-linecap="round" stroke-linejoin="round"/>
</svg>
