<svg width="33" height="33" viewBox="0 0 33 33" fill="none" xmlns="http://www.w3.org/2000/svg">
<path d="M11.604 19.24C11.604 20.9653 12.9281 22.3562 14.5732 22.3562H17.9302C19.3613 22.3562 20.5249 21.1391 20.5249 19.6412C20.5249 18.0094 19.8161 17.4344 18.7594 17.0599L13.3695 15.1875C12.3129 14.8129 11.604 14.2378 11.604 12.6061C11.604 11.1081 12.7676 9.89111 14.1987 9.89111H17.5557C19.2008 9.89111 20.5249 11.282 20.5249 13.0074" stroke="white" style="stroke:white;stroke-opacity:1;" stroke-width="1.60495" stroke-linecap="round" stroke-linejoin="round"/>
<path d="M16.0552 8.09912V24.1486" stroke="white" style="stroke:white;stroke-opacity:1;" stroke-width="1.60495" stroke-linecap="round" stroke-linejoin="round"/>
<path d="M16.055 29.4982C23.4416 29.4982 29.4296 23.5102 29.4296 16.1236C29.4296 8.73706 23.4416 2.74902 16.055 2.74902C8.66846 2.74902 2.68042 8.73706 2.68042 16.1236C2.68042 23.5102 8.66846 29.4982 16.055 29.4982Z" stroke="white" style="stroke:white;stroke-opacity:1;" stroke-width="1.60495" stroke-linecap="round" stroke-linejoin="round"/>
</svg>
