<svg width="34" height="33" viewBox="0 0 34 33" fill="none" xmlns="http://www.w3.org/2000/svg">
<path d="M12.5804 17.1414H14.9076V22.5581C14.9076 23.3606 15.8973 23.735 16.4323 23.1332L22.1299 16.6599C22.6248 16.0982 22.2235 15.2154 21.4745 15.2154H19.1473V9.79874C19.1473 8.99626 18.1576 8.62175 17.6226 9.2236L11.925 15.6969C11.4302 16.2587 11.8315 17.1414 12.5804 17.1414Z" stroke="white" style="stroke:white;stroke-opacity:1;" stroke-width="1.60495" stroke-miterlimit="10" stroke-linecap="round" stroke-linejoin="round"/>
<path d="M16.9808 29.5532C24.3674 29.5532 30.3554 23.5652 30.3554 16.1785C30.3554 8.79198 24.3674 2.80396 16.9808 2.80396C9.59424 2.80396 3.6062 8.79198 3.6062 16.1785C3.6062 23.5652 9.59424 29.5532 16.9808 29.5532Z" stroke="white" style="stroke:white;stroke-opacity:1;" stroke-width="1.60495" stroke-miterlimit="10" stroke-linecap="round" stroke-linejoin="round"/>
</svg>
