<svg width="34" height="33" viewBox="0 0 34 33" fill="none" xmlns="http://www.w3.org/2000/svg">
<path d="M29.0579 9.46393V22.8386C29.0579 26.8509 27.0517 29.5258 22.3707 29.5258H11.6709C6.98983 29.5258 4.98364 26.8509 4.98364 22.8386V9.46393C4.98364 5.45154 6.98983 2.77661 11.6709 2.77661H22.3707C27.0517 2.77661 29.0579 5.45154 29.0579 9.46393Z" stroke="white" style="stroke:white;stroke-opacity:1;" stroke-width="1.60495" stroke-miterlimit="10" stroke-linecap="round" stroke-linejoin="round"/>
<path d="M22.705 14.8139H11.3367C10.0527 14.8139 8.99609 13.7572 8.99609 12.4733V9.1296C8.99609 7.84566 10.0527 6.78906 11.3367 6.78906H22.705C23.989 6.78906 25.0456 7.84566 25.0456 9.1296V12.4733C25.0456 13.7572 23.989 14.8139 22.705 14.8139Z" stroke="white" style="stroke:white;stroke-opacity:1;" stroke-width="1.60495" stroke-miterlimit="10" stroke-linecap="round" stroke-linejoin="round"/>
<path d="M14.747 20.5386L11.6709 23.6147" stroke="white" style="stroke:white;stroke-opacity:1;" stroke-width="1.60495" stroke-miterlimit="10" stroke-linecap="round" stroke-linejoin="round"/>
<path d="M11.7112 20.5784L14.7873 23.6545" stroke="white" style="stroke:white;stroke-opacity:1;" stroke-width="1.60495" stroke-miterlimit="10" stroke-linecap="round" stroke-linejoin="round"/>
<path d="M23.0261 20.605H23.053" stroke="white" style="stroke:white;stroke-opacity:1;" stroke-width="2.00619" stroke-miterlimit="10" stroke-linecap="round" stroke-linejoin="round"/>
<path d="M20.3511 23.5076V23.4807" stroke="white" style="stroke:white;stroke-opacity:1;" stroke-width="2.00619" stroke-miterlimit="10" stroke-linecap="round" stroke-linejoin="round"/>
</svg>
