<svg width="33" height="33" viewBox="0 0 33 33" fill="none" xmlns="http://www.w3.org/2000/svg">
<path d="M28.1265 9.46393V22.8386C28.1265 26.8509 26.1203 29.5258 21.4393 29.5258H10.7395C6.05844 29.5258 4.05225 26.8509 4.05225 22.8386V9.46393C4.05225 5.45154 6.05844 2.77661 10.7395 2.77661H21.4393C26.1203 2.77661 28.1265 5.45154 28.1265 9.46393Z" stroke="white" style="stroke:white;stroke-opacity:1;" stroke-width="1.60495" stroke-miterlimit="10" stroke-linecap="round" stroke-linejoin="round"/>
<path d="M21.7736 14.8139H10.4053C9.12132 14.8139 8.0647 13.7572 8.0647 12.4733V9.1296C8.0647 7.84566 9.12132 6.78906 10.4053 6.78906H21.7736C23.0576 6.78906 24.1142 7.84566 24.1142 9.1296V12.4733C24.1142 13.7572 23.0576 14.8139 21.7736 14.8139Z" stroke="white" style="stroke:white;stroke-opacity:1;" stroke-width="1.60495" stroke-miterlimit="10" stroke-linecap="round" stroke-linejoin="round"/>
<path d="M13.8156 20.5383L10.7395 23.6145" stroke="white" style="stroke:white;stroke-opacity:1;" stroke-width="1.60495" stroke-miterlimit="10" stroke-linecap="round" stroke-linejoin="round"/>
<path d="M10.7795 20.5784L13.8557 23.6545" stroke="white" style="stroke:white;stroke-opacity:1;" stroke-width="1.60495" stroke-miterlimit="10" stroke-linecap="round" stroke-linejoin="round"/>
<path d="M22.0945 20.605H22.1214" stroke="white" style="stroke:white;stroke-opacity:1;" stroke-width="2.00619" stroke-miterlimit="10" stroke-linecap="round" stroke-linejoin="round"/>
<path d="M19.4194 23.5073V23.4805" stroke="white" style="stroke:white;stroke-opacity:1;" stroke-width="2.00619" stroke-miterlimit="10" stroke-linecap="round" stroke-linejoin="round"/>
</svg>
