<svg width="138" height="41" viewBox="0 0 138 41" fill="none" xmlns="http://www.w3.org/2000/svg">
<mask id="mask0_34_2098" style="mask-type:luminance" maskUnits="userSpaceOnUse" x="2" y="5" width="135" height="33">
<path d="M136.001 5.53027H2.6167V37.8104H136.001V5.53027Z" fill="white" style="fill:white;fill-opacity:1;"/>
</mask>
<g mask="url(#mask0_34_2098)">
<path d="M24.3232 16.8234H21.9741V5.71826H24.3232V16.8234Z" fill="#2D344D" style="fill:#2D344D;fill:color(display-p3 0.1765 0.2039 0.3020);fill-opacity:1;"/>
<path d="M34.0012 16.8243H31.8869V11.9305C31.8869 10.9423 31.3701 10.4247 30.3835 10.4247C29.6318 10.4247 29.021 10.7541 28.5512 11.3658V16.8243H26.437V8.77776H28.5512V9.81299C29.2559 8.96598 30.1955 8.54248 31.3701 8.54248C32.2158 8.54248 32.8736 8.77776 33.3434 9.24831C33.8132 9.71887 34.0012 10.3306 34.0012 11.1305V16.8243Z" fill="#2D344D" style="fill:#2D344D;fill:color(display-p3 0.1765 0.2039 0.3020);fill-opacity:1;"/>
<path d="M38.7008 16.8236H36.5865V10.6123H35.271V8.77711H36.5865V8.35361C36.5865 7.50661 36.8215 6.80078 37.3382 6.33022C37.8551 5.76555 38.5128 5.53027 39.3115 5.53027C39.9223 5.53027 40.4392 5.62438 40.862 5.85966L40.3921 7.4125C40.2042 7.27133 39.9693 7.22428 39.6874 7.22428C39.3585 7.22428 39.1236 7.31839 38.9357 7.50661C38.7477 7.69484 38.6538 7.97716 38.6538 8.35361V8.77711H40.2982V10.6123H38.6538V16.8236H38.7008ZM43.6809 16.8236H41.5667V5.7185H43.6809V16.8236Z" fill="#2D344D" style="fill:#2D344D;fill:color(display-p3 0.1765 0.2039 0.3020);fill-opacity:1;"/>
<path d="M53.3116 16.8243H51.1974V15.7891C50.4927 16.5891 49.553 17.0125 48.3784 17.0125C47.5328 17.0125 46.875 16.7773 46.4521 16.3538C46.0293 15.9302 45.7944 15.2715 45.7944 14.4715V8.77783H47.9086V13.6716C47.9086 14.6597 48.4254 15.1774 49.412 15.1774C50.1638 15.1774 50.7745 14.895 51.2444 14.2833V8.77783H53.3586V16.8243H53.3116Z" fill="#2D344D" style="fill:#2D344D;fill:color(display-p3 0.1765 0.2039 0.3020);fill-opacity:1;"/>
<path d="M59.1853 17.0125C57.9638 17.0125 56.9301 16.636 56.0844 15.8361C55.2857 15.0361 54.8628 14.048 54.8628 12.7775C54.8628 11.6011 55.2387 10.5659 56.0374 9.76593C56.8361 8.96598 57.8228 8.54248 59.0443 8.54248C60.2659 8.54248 61.2055 8.96598 61.9573 9.76593C62.709 10.5659 63.0848 11.6481 63.0848 12.9657V13.4363H57.1181C57.165 13.9538 57.3999 14.4244 57.8228 14.7538C58.2456 15.1302 58.7625 15.2714 59.4202 15.2714C59.796 15.2714 60.1719 15.1773 60.5948 15.0361C61.0176 14.895 61.3465 14.7068 61.5814 14.4715L62.521 15.8361C61.6754 16.636 60.5948 17.0125 59.1853 17.0125ZM61.0177 12.0246C60.9707 11.554 60.7827 11.1776 60.4538 10.8012C60.1249 10.4247 59.6551 10.2365 58.9974 10.2365C58.3866 10.2365 57.9167 10.4247 57.5879 10.8012C57.259 11.1776 57.0711 11.554 57.0241 12.0246H61.0177Z" fill="#2D344D" style="fill:#2D344D;fill:color(display-p3 0.1765 0.2039 0.3020);fill-opacity:1;"/>
<path d="M72.152 16.8243H70.0379V11.9305C70.0379 10.9423 69.5208 10.4247 68.5341 10.4247C67.7826 10.4247 67.1717 10.7541 66.7021 11.3658V16.8243H64.5874V8.77776H66.7021V9.81299C67.4068 8.96598 68.3466 8.54248 69.5208 8.54248C70.3668 8.54248 71.0246 8.77776 71.4942 9.24831C71.9638 9.71887 72.152 10.3306 72.152 11.1305V16.8243Z" fill="#2D344D" style="fill:#2D344D;fill:color(display-p3 0.1765 0.2039 0.3020);fill-opacity:1;"/>
<path d="M77.9757 17.0128C76.7546 17.0128 75.721 16.6364 74.9219 15.8364C74.1234 15.0365 73.7007 14.0483 73.7007 12.7778C73.7007 11.5544 74.1234 10.5191 74.9219 9.76624C75.721 8.96629 76.7546 8.58984 77.9757 8.58984C79.3851 8.58984 80.4662 9.0604 81.1708 10.0486L79.8084 11.3661C79.4326 10.8015 78.8686 10.5191 78.117 10.5191C77.4592 10.5191 76.9421 10.7544 76.5664 11.1779C76.1437 11.6014 75.9555 12.1661 75.9555 12.8719C75.9555 13.5778 76.1437 14.1424 76.5664 14.5659C76.989 14.9895 77.5061 15.2247 78.117 15.2247C78.8217 15.2247 79.3851 14.9424 79.8084 14.3777L81.1708 15.6482C80.4662 16.5423 79.4326 17.0128 77.9757 17.0128Z" fill="#2D344D" style="fill:#2D344D;fill:color(display-p3 0.1765 0.2039 0.3020);fill-opacity:1;"/>
<path d="M86.3415 17.0125C85.1203 17.0125 84.0861 16.636 83.2408 15.8361C82.4423 15.0361 82.019 14.048 82.019 12.7775C82.019 11.6011 82.3948 10.5659 83.1939 9.76593C83.9923 8.96598 84.979 8.54248 86.2008 8.54248C87.422 8.54248 88.3617 8.96598 89.1133 9.76593C89.8655 10.5659 90.2413 11.6481 90.2413 12.9657V13.4363H84.2743C84.3212 13.9538 84.5563 14.4244 84.979 14.7538C85.4017 15.1302 85.9188 15.2714 86.5766 15.2714C86.9524 15.2714 87.3282 15.1773 87.7508 15.0361C88.1741 14.895 88.503 14.7068 88.7375 14.4715L89.6773 15.8361C88.8319 16.636 87.7508 17.0125 86.3415 17.0125ZM88.1741 12.0246C88.1272 11.554 87.939 11.1776 87.6101 10.8012C87.2813 10.4247 86.8117 10.2365 86.1539 10.2365C85.543 10.2365 85.0728 10.4247 84.7439 10.8012C84.415 11.1776 84.2274 11.554 84.1805 12.0246H88.1741Z" fill="#2D344D" style="fill:#2D344D;fill:color(display-p3 0.1765 0.2039 0.3020);fill-opacity:1;"/>
<path d="M93.8583 16.8243H91.7437V8.77776H93.8583V9.86004C94.1397 9.48359 94.5629 9.1542 94.9856 8.91893C95.4552 8.68365 95.9254 8.54248 96.3951 8.54248V10.6129C96.2544 10.5659 96.0662 10.5659 95.8311 10.5659C95.4553 10.5659 95.0795 10.66 94.7037 10.8482C94.281 11.0364 93.999 11.2247 93.8583 11.507V16.8243Z" fill="#2D344D" style="fill:#2D344D;fill:color(display-p3 0.1765 0.2039 0.3020);fill-opacity:1;"/>
<path d="M45.9347 31.2696H44.5722V22.0938L40.8136 31.2696H40.2028L36.4442 22.0938V31.2696H35.0347V20.1646H37.008L40.4377 28.5405L43.9145 20.1646H45.8877V31.2696H45.9347Z" fill="#2D344D" style="fill:#2D344D;fill:color(display-p3 0.1765 0.2039 0.3020);fill-opacity:1;"/>
<path d="M54.7202 31.2709H53.4516V30.3768C52.7939 31.1297 51.9012 31.5061 50.7736 31.5061C50.0219 31.5061 49.3641 31.2709 48.8004 30.8003C48.2366 30.3297 47.9546 29.671 47.9546 28.871C47.9546 28.024 48.2366 27.3653 48.8004 26.8947C49.3641 26.4241 50.0219 26.1889 50.7736 26.1889C51.9012 26.1889 52.7939 26.5653 53.4516 27.2712V25.8124C53.4516 25.2948 53.2637 24.8713 52.8878 24.5419C52.512 24.2596 52.0422 24.0714 51.4314 24.0714C50.4917 24.0714 49.646 24.4478 48.9883 25.2007L48.4245 24.3537C49.2702 23.4596 50.3508 23.0361 51.6193 23.0361C52.5589 23.0361 53.3107 23.2714 53.8745 23.6949C54.4383 24.1184 54.7202 24.8243 54.7202 25.7654V31.2709ZM51.2905 30.565C52.2771 30.565 53.0288 30.2356 53.4986 29.5769V28.0711C53.0288 27.4123 52.2771 27.0829 51.2905 27.0829C50.7266 27.0829 50.2568 27.2241 49.881 27.5535C49.5051 27.8828 49.3172 28.3064 49.3172 28.824C49.3172 29.3416 49.5051 29.7651 49.881 30.0945C50.2099 30.4238 50.6797 30.565 51.2905 30.565Z" fill="#2D344D" style="fill:#2D344D;fill:color(display-p3 0.1765 0.2039 0.3020);fill-opacity:1;"/>
<path d="M58.479 31.2687H57.2104V23.2222H58.479V24.5398C59.2307 23.5516 60.1234 23.0811 61.157 23.0811V24.3516C61.0161 24.3045 60.8281 24.3045 60.6402 24.3045C60.2644 24.3045 59.8415 24.4457 59.4187 24.6809C58.9958 24.9633 58.6669 25.2456 58.479 25.575V31.2687Z" fill="#2D344D" style="fill:#2D344D;fill:color(display-p3 0.1765 0.2039 0.3020);fill-opacity:1;"/>
<path d="M69.8007 31.2696H68.2031L65.2906 27.6464L63.975 28.9639V31.2696H62.7065V20.1646H63.975V27.5051L68.2031 23.2232H69.8007L66.2298 26.8934L69.8007 31.2696Z" fill="#2D344D" style="fill:#2D344D;fill:color(display-p3 0.1765 0.2039 0.3020);fill-opacity:1;"/>
<path d="M74.876 31.4583C73.6542 31.4583 72.7151 31.0818 71.916 30.2819C71.1644 29.482 70.7886 28.4938 70.7886 27.2233C70.7886 26.0469 71.1644 25.0587 71.916 24.2117C72.6682 23.4118 73.6073 22.9883 74.7353 22.9883C75.9096 22.9883 76.8494 23.4118 77.5541 24.2117C78.2587 25.0116 78.5876 26.0469 78.5876 27.3174V27.6468H72.0573C72.1042 28.4467 72.3862 29.1055 72.9027 29.6231C73.4198 30.1407 74.1244 30.4231 74.9229 30.4231C75.9096 30.4231 76.7556 30.0937 77.4134 29.3879L78.0236 30.1878C77.2252 31.0348 76.1916 31.4583 74.876 31.4583ZM77.3665 26.7527C77.3665 26.0469 77.1314 25.4352 76.6612 24.8705C76.1916 24.3058 75.5338 24.0235 74.7353 24.0235C73.9362 24.0235 73.3253 24.3058 72.8558 24.8234C72.3862 25.3881 72.1511 25.9998 72.1042 26.7057H77.3665V26.7527Z" fill="#2D344D" style="fill:#2D344D;fill:color(display-p3 0.1765 0.2039 0.3020);fill-opacity:1;"/>
<path d="M82.6295 31.4576C82.0186 31.4576 81.5959 31.3164 81.3139 30.987C81.0319 30.6576 80.8443 30.1871 80.8443 29.5753V24.3051H79.5288V23.2228H80.8443V21.0112H82.113V23.2228H83.7574V24.3051H82.113V29.293C82.113 29.6224 82.1599 29.8576 82.3006 30.0459C82.4419 30.2341 82.6295 30.3282 82.9115 30.3282C83.2873 30.3282 83.5692 30.2341 83.7574 29.9988L84.1332 30.9399C83.7575 31.3164 83.2873 31.4576 82.6295 31.4576Z" fill="#2D344D" style="fill:#2D344D;fill:color(display-p3 0.1765 0.2039 0.3020);fill-opacity:1;"/>
<path d="M86.1047 22.0461C85.8702 22.0461 85.682 21.952 85.5413 21.8108C85.3531 21.6696 85.3062 21.4344 85.3062 21.1991C85.3062 20.9638 85.4 20.7755 85.5413 20.5872C85.7289 20.399 85.9171 20.3521 86.1047 20.3521C86.3398 20.3521 86.528 20.4461 86.7156 20.5872C86.9038 20.7755 86.9507 20.9638 86.9507 21.1991C86.9507 21.4344 86.8569 21.6226 86.7156 21.8108C86.528 21.999 86.3398 22.0461 86.1047 22.0461ZM86.7625 31.2689H85.4944V23.2225H86.7625V31.2689Z" fill="#2D344D" style="fill:#2D344D;fill:color(display-p3 0.1765 0.2039 0.3020);fill-opacity:1;"/>
<path d="M95.9271 31.2709H94.6584V26.0007C94.6584 25.3419 94.5177 24.8243 94.1888 24.5419C93.8599 24.2596 93.4366 24.1184 92.8732 24.1184C92.4031 24.1184 91.9335 24.2596 91.5108 24.4949C91.0875 24.7301 90.7117 25.0125 90.4766 25.3889V31.2709H89.2085V23.2243H90.4766V24.4007C90.8055 24.0243 91.1819 23.6949 91.7453 23.4596C92.2624 23.1773 92.8257 23.0361 93.3428 23.0361C95.0342 23.0361 95.9271 23.8832 95.9271 25.6242V31.2709Z" fill="#2D344D" style="fill:#2D344D;fill:color(display-p3 0.1765 0.2039 0.3020);fill-opacity:1;"/>
<path d="M101.656 34.5169C100.952 34.5169 100.341 34.4228 99.8237 34.2816C99.3072 34.0934 98.837 33.811 98.4143 33.3405L99.0252 32.3994C99.6361 33.1523 100.528 33.4816 101.656 33.4816C102.408 33.4816 103.019 33.2934 103.488 32.87C103.959 32.4935 104.24 31.8818 104.24 31.0348V29.9054C103.959 30.3289 103.535 30.6584 103.066 30.9407C102.596 31.223 102.079 31.3642 101.515 31.3642C100.435 31.3642 99.5892 30.9877 98.9314 30.2348C98.2737 29.482 97.9448 28.4467 97.9448 27.1762C97.9448 25.9057 98.2737 24.8705 98.9314 24.1176C99.5892 23.3647 100.435 22.9883 101.515 22.9883C102.596 22.9883 103.535 23.4588 104.193 24.4V23.1765H105.462V30.9877C105.462 32.2112 105.086 33.1053 104.381 33.6699C103.677 34.2816 102.737 34.5169 101.656 34.5169ZM101.844 30.2819C102.314 30.2819 102.784 30.1407 103.254 29.9054C103.724 29.6702 104.052 29.3408 104.24 28.9643V25.4352C104.006 25.0587 103.677 24.7764 103.254 24.4941C102.831 24.2588 102.361 24.1176 101.844 24.1176C101.045 24.1176 100.435 24.4 99.965 24.9646C99.4948 25.5293 99.2603 26.2821 99.2603 27.1762C99.2603 28.0703 99.4948 28.8231 99.965 29.3879C100.435 29.9995 101.045 30.2819 101.844 30.2819Z" fill="#2D344D" style="fill:#2D344D;fill:color(display-p3 0.1765 0.2039 0.3020);fill-opacity:1;"/>
<path d="M117.067 31.2696H116.08V25.9995H109.033V31.2696H108.093V20.1646H109.033V25.1523H116.08V20.1646H117.067V31.2696Z" fill="#2D344D" style="fill:#2D344D;fill:color(display-p3 0.1765 0.2039 0.3020);fill-opacity:1;"/>
<path d="M126.088 31.2706H125.242V30.0942C124.866 30.5177 124.444 30.8471 123.927 31.0824C123.41 31.3177 122.893 31.4589 122.329 31.4589C121.484 31.4589 120.873 31.2706 120.45 30.8471C120.027 30.4236 119.839 29.7648 119.839 28.8708V23.2241H120.685V28.6826C120.685 29.4354 120.873 29.9531 121.202 30.2354C121.531 30.5177 122 30.6589 122.658 30.6589C123.175 30.6589 123.645 30.5177 124.115 30.2825C124.584 30.0472 124.96 29.7178 125.242 29.3413V23.2241H126.088V31.2706Z" fill="#2D344D" style="fill:#2D344D;fill:color(display-p3 0.1765 0.2039 0.3020);fill-opacity:1;"/>
<path d="M129.613 31.2696H128.767V20.1646H129.613V24.5407C130.318 23.5526 131.257 23.0349 132.432 23.0349C133.513 23.0349 134.358 23.4114 135.016 24.2113C135.674 25.0113 136.003 25.9995 136.003 27.27C136.003 28.5405 135.674 29.5757 135.016 30.3286C134.358 31.0815 133.465 31.4578 132.432 31.4578C131.868 31.4578 131.304 31.3167 130.835 31.0344C130.318 30.7521 129.942 30.4227 129.66 29.9521V31.2696H129.613ZM129.613 29.2463C129.848 29.6698 130.224 29.9992 130.693 30.2815C131.164 30.5639 131.68 30.705 132.244 30.705C133.136 30.705 133.794 30.3756 134.311 29.7169C134.828 29.0581 135.063 28.2581 135.063 27.27C135.063 26.2818 134.828 25.4347 134.311 24.7759C133.794 24.1171 133.136 23.7878 132.244 23.7878C131.727 23.7878 131.211 23.929 130.693 24.2113C130.177 24.4937 129.848 24.8231 129.566 25.2465V29.2463H129.613Z" fill="#2D344D" style="fill:#2D344D;fill:color(display-p3 0.1765 0.2039 0.3020);fill-opacity:1;"/>
<path d="M31.5593 20.6831H3.79248L17.6524 34.5645L31.5593 20.6831Z" fill="#2D344D" style="fill:#2D344D;fill:color(display-p3 0.1765 0.2039 0.3020);fill-opacity:1;"/>
<path d="M3.83936 20.728L17.6523 34.6095V20.728H3.83936Z" fill="#2D344D" style="fill:#2D344D;fill:color(display-p3 0.1765 0.2039 0.3020);fill-opacity:1;"/>
<path d="M17.6504 6.80078V34.6106L3.8374 20.7292L17.6504 6.80078Z" fill="#49547B" style="fill:#49547B;fill:color(display-p3 0.2863 0.3294 0.4824);fill-opacity:1;"/>
</g>
</svg>
