<svg width="33" height="33" viewBox="0 0 33 33" fill="none" xmlns="http://www.w3.org/2000/svg">
<path d="M17.44 4.03433L25.331 7.53847C27.6047 8.54159 27.6047 10.2 25.331 11.2031L17.44 14.7073C16.5439 15.1085 15.0727 15.1085 14.1766 14.7073L6.28559 11.2031C4.0119 10.2 4.0119 8.54159 6.28559 7.53847L14.1766 4.03433C15.0727 3.63309 16.5439 3.63309 17.44 4.03433Z" stroke="white" style="stroke:white;stroke-opacity:1;" stroke-width="1.60495" stroke-linecap="round" stroke-linejoin="round"/>
<path d="M4.05225 14.8411C4.05225 15.9645 4.89485 17.2618 5.92469 17.7166L15.006 21.7557C15.7015 22.0633 16.4906 22.0633 17.1727 21.7557L26.2541 17.7166C27.2839 17.2618 28.1265 15.9645 28.1265 14.8411" stroke="white" style="stroke:white;stroke-opacity:1;" stroke-width="1.60495" stroke-linecap="round" stroke-linejoin="round"/>
<path d="M4.05225 21.5283C4.05225 22.7722 4.78785 23.8956 5.92469 24.4039L15.006 28.443C15.7015 28.7506 16.4906 28.7506 17.1727 28.443L26.2541 24.4039C27.3909 23.8956 28.1265 22.7722 28.1265 21.5283" stroke="white" style="stroke:white;stroke-opacity:1;" stroke-width="1.60495" stroke-linecap="round" stroke-linejoin="round"/>
</svg>
