<svg width="33" height="33" viewBox="0 0 33 33" fill="none" xmlns="http://www.w3.org/2000/svg">
<path d="M16.124 29.5258C21.6477 29.5258 26.1549 25.0186 26.1549 19.4949V12.8076C26.1549 7.28385 21.6477 2.77661 16.124 2.77661C10.6003 2.77661 6.09302 7.28385 6.09302 12.8076V19.4949C6.09302 25.0186 10.6003 29.5258 16.124 29.5258Z" stroke="white" style="stroke:white;stroke-opacity:1;" stroke-width="1.60495" stroke-linecap="round" stroke-linejoin="round"/>
<path d="M16.1239 14.8137C15.0138 14.8137 14.1177 13.9177 14.1177 12.8075V10.1327C14.1177 9.02259 15.0138 8.12646 16.1239 8.12646C17.2206 8.12646 18.1301 9.02259 18.1301 10.1327V12.8075C18.1301 13.9177 17.2206 14.8137 16.1239 14.8137Z" stroke="white" style="stroke:white;stroke-opacity:1;" stroke-width="1.60495" stroke-linecap="round" stroke-linejoin="round"/>
<path d="M16.124 8.12645V2.77661" stroke="white" style="stroke:white;stroke-opacity:1;" stroke-width="1.60495" stroke-linecap="round" stroke-linejoin="round"/>
</svg>
