<svg width="112" height="112" viewBox="0 0 112 112" fill="none" xmlns="http://www.w3.org/2000/svg">
<g clip-path="url(#clip0_151_1750)">
<mask id="mask0_151_1750" style="mask-type:luminance" maskUnits="userSpaceOnUse" x="0" y="0" width="112" height="112">
<path d="M111.379 0.356689H0.44165V111.294H111.379V0.356689Z" fill="white" style="fill:white;fill-opacity:1;"/>
</mask>
<g mask="url(#mask0_151_1750)">
<path d="M26.8865 42.61C26.8865 42.61 29.0636 14.5566 56.8258 14.5566C84.588 14.5566 86.8344 42.721 86.8344 42.721C86.8344 42.721 99.9112 41.6116 99.9112 53.2601C99.9112 64.9363 87.0425 63.1474 87.0425 63.1474C87.0425 63.1474 84.893 93.475 58.7256 93.475C29.4519 93.475 26.2763 64.6312 26.2763 64.6312C26.2763 64.6312 13.7958 65.6296 12.5062 55.9642C11.0085 44.593 26.8865 42.5962 26.8865 42.5962" fill="#FFD6C0" style="fill:#FFD6C0;fill:color(display-p3 1.0000 0.8392 0.7529);fill-opacity:1;"/>
<path d="M89.608 55.1185L90.2459 54.55L90.3845 54.4252C90.5509 54.2865 90.2042 54.5638 90.3568 54.4529L90.6896 54.2172C91.1518 53.8936 91.6418 53.607 92.1595 53.3574L92.5201 53.191L92.5894 53.1632L92.6588 53.1355L93.4631 52.8443C94.0177 52.6779 94.5724 52.5485 95.1271 52.456C95.8482 52.3451 96.3058 51.4021 96.0978 50.7503C95.8482 49.9738 95.1687 49.641 94.3922 49.7796C91.8554 50.2043 89.5035 51.3778 87.6388 53.1494C87.1119 53.6486 87.0841 54.6193 87.6388 55.0908C88.1935 55.59 89.0255 55.6455 89.5802 55.0908L89.608 55.1185ZM17.7758 53.5099L17.9699 53.5238C17.5955 53.4961 17.8174 53.5099 17.9144 53.5238L18.3304 53.5931L19.0515 53.7873L19.4398 53.9121L19.6062 53.9814C19.634 53.9814 19.9113 54.1062 19.6894 54.0091C19.4953 53.8705 19.6894 53.9537 19.731 53.9675L19.939 54.0507L20.2996 54.231L20.9514 54.647L21.3258 54.9521C21.7603 55.3034 22.1439 55.6871 22.4767 56.1031C22.9344 56.6578 23.9605 56.6162 24.432 56.1031C24.9867 55.5068 24.9312 54.7441 24.432 54.1617C22.733 52.1679 20.3272 50.9103 17.7203 50.6533C16.9992 50.5701 16.3058 51.3466 16.3336 52.04C16.3752 52.8582 16.9437 53.3435 17.7203 53.4267M43.0973 50.7919V57.0877C43.0973 57.8088 43.7352 58.5021 44.484 58.4744C45.2329 58.4467 45.8707 57.8642 45.8707 57.0877V50.8336C45.8707 50.1125 45.2329 49.4191 44.484 49.4468C43.7352 49.4746 43.0973 50.057 43.0973 50.8336M68.6685 50.2789L68.4605 56.949C68.4605 57.3168 68.6066 57.6695 68.8666 57.9296C69.1267 58.1896 69.4794 58.3357 69.8472 58.3357C70.6237 58.308 71.2062 57.7256 71.2339 56.949L71.4419 50.2927C71.4419 49.9249 71.2958 49.5722 71.0357 49.3122C70.7757 49.0521 70.423 48.906 70.0552 48.906C69.6874 48.906 69.3347 49.0521 69.0746 49.3122C68.8146 49.5722 68.6685 49.9249 68.6685 50.2927" fill="black" style="fill:black;fill-opacity:1;"/>
<path d="M39.0757 61.0813C42.4177 73.9639 60.0984 78.1102 70.0551 70.3307C73.226 67.7614 75.5065 64.2581 76.5727 60.3186C77.0719 58.5991 74.3955 57.8641 73.8963 59.5836C72.1768 65.4495 67.8918 69.8315 61.8596 71.135C56.6316 72.2444 50.7242 70.9964 46.5363 67.6405C44.1984 65.7871 42.5207 63.2291 41.7521 60.3463C41.2806 58.6129 38.6042 59.3479 39.048 61.0813" fill="black" style="fill:black;fill-opacity:1;"/>
<path d="M26.8864 42.6101C26.8864 42.6101 29.1468 50.9304 30.3394 50.667C33.2515 50.1677 36.0943 26.746 36.0943 26.746L77.7375 26.3023C77.7375 26.3023 80.0118 49.9597 82.1473 49.9597C84.2829 49.9597 86.8206 42.721 86.8206 42.721C86.8206 42.721 88.5124 15.1253 86.4462 12.3518C83.229 8.0946 28.5644 7.4567 26.7894 14.0852C25.0144 20.7138 26.8726 42.624 26.8726 42.624L26.8864 42.6101Z" fill="#1C093F" style="fill:#1C093F;fill:color(display-p3 0.1113 0.0372 0.2469);fill-opacity:1;"/>
</g>
</g>
<defs>
<clipPath id="clip0_151_1750">
<rect width="110.938" height="110.938" fill="white" style="fill:white;fill-opacity:1;" transform="translate(0.44165 0.356689)"/>
</clipPath>
</defs>
</svg>
