<svg width="33" height="33" viewBox="0 0 33 33" fill="none" xmlns="http://www.w3.org/2000/svg">
<g clip-path="url(#clip0_153_2106)">
<path d="M20.0636 17.0104V21.1833C20.0636 24.6684 18.6727 26.0592 15.1876 26.0592H11.0301C7.5603 26.0592 6.15405 24.6684 6.15405 21.1833V17.0104C6.15405 13.5406 7.54501 12.1497 11.0301 12.1497H15.2029C18.6727 12.1497 20.0636 13.5406 20.0636 17.0104Z" stroke="white" style="stroke:white;stroke-opacity:1;" stroke-width="1.52853" stroke-linecap="round" stroke-linejoin="round"/>
<path d="M26.0248 11.0492V15.2221C26.0248 18.7071 24.6339 20.0981 21.1489 20.0981H20.0636V17.0104C20.0636 13.5407 18.6726 12.1497 15.1876 12.1497H12.1152V11.0492C12.1152 7.56415 13.5062 6.18848 16.9912 6.18848H21.1641C24.6339 6.18848 26.0248 7.57943 26.0248 11.0492Z" stroke="white" style="stroke:white;stroke-opacity:1;" stroke-width="1.52853" stroke-linecap="round" stroke-linejoin="round"/>
<path d="M31.3747 20.7095C31.3747 26.6249 26.5904 31.4092 20.675 31.4092L22.28 28.7342" stroke="white" style="stroke:white;stroke-opacity:1;" stroke-width="1.52853" stroke-linecap="round" stroke-linejoin="round"/>
<path d="M0.804199 11.5383C0.804199 5.62291 5.58849 0.838623 11.5039 0.838623L9.89893 3.51354" stroke="white" style="stroke:white;stroke-opacity:1;" stroke-width="1.52853" stroke-linecap="round" stroke-linejoin="round"/>
</g>
<defs>
<clipPath id="clip0_153_2106">
<rect width="32.099" height="32.099" fill="white" style="fill:white;fill-opacity:1;" transform="translate(0.0400391 0.0742188)"/>
</clipPath>
</defs>
</svg>
