<svg width="33" height="33" viewBox="0 0 33 33" fill="none" xmlns="http://www.w3.org/2000/svg">
<g clip-path="url(#clip0_153_2183)">
<path d="M27.6089 8.92932V23.3739C27.6089 29.1517 26.1644 30.5962 20.3866 30.5962H11.7199C5.94202 30.5962 4.49756 29.1517 4.49756 23.3739V8.92932C4.49756 3.15149 5.94202 1.70703 11.7199 1.70703H20.3866C26.1644 1.70703 27.6089 3.15149 27.6089 8.92932Z" stroke="white" style="stroke:white;stroke-opacity:1;" stroke-width="1.60495" stroke-linecap="round" stroke-linejoin="round"/>
<path d="M18.9429 6.76245H13.165" stroke="white" style="stroke:white;stroke-opacity:1;" stroke-width="1.60495" stroke-linecap="round" stroke-linejoin="round"/>
<path d="M16.0529 26.4073C17.2894 26.4073 18.2918 25.4049 18.2918 24.1684C18.2918 22.9318 17.2894 21.9294 16.0529 21.9294C14.8164 21.9294 13.814 22.9318 13.814 24.1684C13.814 25.4049 14.8164 26.4073 16.0529 26.4073Z" stroke="white" style="stroke:white;stroke-opacity:1;" stroke-width="1.60495" stroke-linecap="round" stroke-linejoin="round"/>
</g>
<defs>
<clipPath id="clip0_153_2183">
<rect width="32.099" height="32.099" fill="white" style="fill:white;fill-opacity:1;" transform="translate(0.00561523 0.102051)"/>
</clipPath>
</defs>
</svg>
