<svg width="112" height="112" viewBox="0 0 112 112" fill="none" xmlns="http://www.w3.org/2000/svg">
<g clip-path="url(#clip0_151_1738)">
<mask id="mask0_151_1738" style="mask-type:luminance" maskUnits="userSpaceOnUse" x="0" y="0" width="112" height="112">
<path d="M111.499 0.650146H0.561035V111.588H111.499V0.650146Z" fill="white" style="fill:white;fill-opacity:1;"/>
</mask>
<g mask="url(#mask0_151_1738)">
<path d="M27.0058 42.9035C27.0058 42.9035 29.183 14.8501 56.9452 14.8501C84.7074 14.8501 86.9538 43.0144 86.9538 43.0144C86.9538 43.0144 100.031 41.9051 100.031 53.5535C100.031 65.2297 87.1618 63.4408 87.1618 63.4408C87.1618 63.4408 85.0124 93.7685 58.845 93.7685C29.5713 93.7685 26.3957 64.9246 26.3957 64.9246C26.3957 64.9246 13.9152 65.9231 12.6255 56.2576C11.1279 44.8865 27.0058 42.8896 27.0058 42.8896" fill="#FFD6C0" style="fill:#FFD6C0;fill:color(display-p3 1.0000 0.8392 0.7529);fill-opacity:1;"/>
<path d="M89.7271 55.4117L90.365 54.8432L90.5037 54.7184C90.6701 54.5797 90.3234 54.857 90.4759 54.7461L90.8088 54.5104C91.271 54.1868 91.761 53.9002 92.2787 53.6506L92.6392 53.4842L92.7085 53.4565L92.7779 53.4287L93.5822 53.1375C94.1369 52.9711 94.6916 52.8417 95.2463 52.7492C95.9674 52.6383 96.425 51.6953 96.217 51.0436C95.9674 50.267 95.2879 49.9342 94.5113 50.0729C91.9745 50.4975 89.6227 51.671 87.758 53.4426C87.231 53.9418 87.2033 54.9125 87.758 55.384C88.3127 55.8832 89.1447 55.9387 89.6994 55.384L89.7271 55.4117ZM17.8949 53.8031L18.089 53.817C17.7146 53.7893 17.9365 53.8031 18.0336 53.817L18.4496 53.8863L19.1707 54.0805L19.559 54.2053L19.7254 54.2746C19.7531 54.2746 20.0305 54.3994 19.8086 54.3024C19.6144 54.1637 19.8086 54.2469 19.8502 54.2608L20.0582 54.344L20.4187 54.5242L21.0705 54.9403L21.4449 55.2453C21.8794 55.5966 22.2631 55.9803 22.5959 56.3963C23.0535 56.951 24.0797 56.9094 24.5512 56.3963C25.1059 55.8 25.0504 55.0373 24.5512 54.4549C22.8521 52.4611 20.4463 51.2035 17.8394 50.9465C17.1183 50.8633 16.425 51.6399 16.4527 52.3332C16.4943 53.1514 17.0629 53.6367 17.8394 53.7199M43.2164 51.0852V57.3809C43.2164 58.102 43.8543 58.7953 44.6032 58.7676C45.352 58.7399 45.9899 58.1574 45.9899 57.3809V51.1268C45.9899 50.4057 45.352 49.7123 44.6032 49.74C43.8543 49.7678 43.2164 50.3502 43.2164 51.1268M68.7876 50.5721L68.5796 57.2422C68.5796 57.61 68.7257 57.9627 68.9858 58.2228C69.2458 58.4828 69.5985 58.6289 69.9663 58.6289C70.7429 58.6012 71.3253 58.0188 71.353 57.2422L71.561 50.5859C71.561 50.2182 71.4149 49.8654 71.1549 49.6054C70.8948 49.3453 70.5421 49.1992 70.1743 49.1992C69.8065 49.1992 69.4538 49.3453 69.1938 49.6054C68.9337 49.8654 68.7876 50.2182 68.7876 50.5859" fill="black" style="fill:black;fill-opacity:1;"/>
<path d="M70.2715 61.8043C61.5256 61.5575 52.7735 61.65 44.0347 62.0817C44.0347 62.0817 42.856 79.1106 57.7356 79.7624C71.0481 80.3448 70.2577 61.7905 70.2577 61.7905L70.2715 61.8043Z" fill="white" style="fill:white;fill-opacity:1;"/>
<path d="M70.2715 60.4178C61.5167 60.1774 52.7711 60.2699 44.0347 60.6951C43.2443 60.7367 42.7035 61.3053 42.648 62.0819C42.232 68.1418 44.4369 75.1309 49.5816 78.6671C53.5754 81.3989 59.5799 82.1339 63.9342 79.8735C67.6645 77.946 69.7307 73.9383 70.7291 70.0278C71.4225 67.393 71.783 64.5225 71.6721 61.8045C71.6028 60.0295 68.8293 60.0156 68.8987 61.8045C69.0928 66.7412 68.0389 73.1756 64.0451 76.5038C60.7863 79.2079 55.5168 78.8612 51.9668 76.8782C48.8189 75.1309 46.9746 71.9415 46.1009 68.5301C45.5462 66.45 45.2689 64.2868 45.4076 62.0957L44.0209 63.4825C52.7664 63.0664 61.5167 62.974 70.2715 63.2051C72.0604 63.2328 72.0604 60.4594 70.2715 60.4317V60.4178Z" fill="black" style="fill:black;fill-opacity:1;"/>
<path d="M35.9362 28.5232C35.6173 29.8406 35.645 32.2951 35.9362 33.6125C36.2275 34.9298 37.9609 35.2349 39.3199 35.2072C40.7204 35.1933 41.7466 33.9175 42.3984 32.6695C43.2027 31.0979 43.7389 29.4384 44.007 27.6912C43.8822 30.215 44.5894 33.2796 46.9884 34.0701C48.6525 34.5832 50.4968 33.7234 51.6201 32.406C52.6494 30.9929 53.4022 29.3979 53.8388 27.705C53.7002 29.272 53.5615 30.8945 54.0607 32.3644C54.5461 33.8482 55.8218 35.2072 57.3888 35.2765C58.6646 35.3181 59.8295 34.5416 60.717 33.6125C62.1031 32.1047 62.9768 30.1971 63.2131 28.1626C62.4642 30.9361 64.8078 34.0839 67.6644 34.181C70.5211 34.2781 73.0727 31.2689 72.4902 28.4538C72.9201 30.631 74.4871 32.6695 76.6504 33.2103C78.7859 33.7789 81.3791 32.406 81.7535 30.215C80.2815 34.0486 79.9023 38.2154 80.658 42.2517C80.8938 43.5275 81.3514 44.9004 82.4885 45.4828C83.6256 46.0652 85.4006 44.9836 84.9291 43.8187C81.504 47.9551 79.6131 53.1477 79.5764 58.518C79.5764 60.3207 79.8537 62.2621 81.1295 63.5102C82.4053 64.7721 84.9846 64.7582 85.6918 63.0942C83.3621 64.9246 81.8645 72.7458 81.7951 75.7133C81.7397 78.4174 81.7951 81.2602 83.0987 83.6177C84.4022 85.9751 87.2311 87.7501 89.7965 86.9042C92.7086 85.9335 94.969 77.7518 94.442 74.7149C93.9983 74.9922 94.1508 75.7549 94.5807 76.0323C95.0383 76.3096 95.6208 76.2264 96.1338 76.0739C97.3529 75.6981 98.4476 74.9997 99.302 74.0525C100.156 73.1053 100.739 71.9446 100.987 70.6934C101.206 69.4364 101.08 68.1438 100.623 66.9524C100.167 65.7611 99.3966 64.7154 98.3942 63.9262C98.4774 64.786 99.8087 64.6196 100.474 64.0649C102.025 62.8073 103.163 61.1138 103.741 59.203C104.32 57.2922 104.312 55.2519 103.719 53.3455C103.262 52.0281 102.152 50.6137 100.779 50.8633C102.61 50.6275 103.525 48.4781 103.553 46.6338C103.636 41.3226 100.544 34.8466 95.2325 35.124C96.5637 32.0732 96.4251 28.0517 94.2479 25.514C90.7256 21.4093 88.5623 21.9779 85.2619 22.4771C85.6913 20.8595 85.6619 19.1544 85.177 17.5526C84.692 15.9508 83.7707 14.5157 82.5162 13.4079C81.2392 12.3345 79.6894 11.6365 78.0393 11.3917C76.3891 11.1469 74.7034 11.3648 73.1697 12.0212C71.6998 8.9704 68.2885 7.26474 64.9326 6.75165C63.469 6.44752 61.9505 6.54333 60.5367 7.02899C59.15 7.59755 57.999 8.87333 57.9297 10.3571C55.8003 8.464 53.0611 7.39992 50.2122 7.35919C47.3633 7.31845 44.5948 8.30378 42.4122 10.1353C41.6495 10.8286 41.0671 12.2153 41.9962 12.6868C41.9962 12.6868 32.7607 10.4403 28.8362 16.32C24.9118 22.1997 27.2692 24.3492 27.2692 24.3492C27.2692 24.3492 17.6731 24.7374 17.8673 29.8267C18.0614 34.916 19.6284 35.7064 19.6284 35.7064C19.6284 35.7064 11.2942 33.3212 9.51919 38.1886C8.077 42.0992 12.0014 44.318 12.0014 44.318C12.0014 44.2486 4.51313 47.3965 6.12172 54.857C7.16177 59.7106 10.8366 60.5426 10.8366 60.5426C10.8366 60.5426 7.49458 69.695 10.6286 73.0231C13.7626 76.3512 17.8673 73.6055 17.8673 73.6055C17.8673 73.6055 15.912 83.5899 20.4188 85.1569C24.9257 86.7239 27.8517 82.2171 27.8517 82.2171C27.8517 82.2171 24.9118 90.6345 31.3739 89.844C37.8361 89.0813 41.7189 76.5315 36.0888 70.8737C36.0749 70.8737 39.0009 65.3823 38.0302 60.6813C37.0595 55.9803 33.5234 52.6521 33.5234 52.6521C33.5234 52.6521 36.2691 51.099 35.8808 47.1885C35.4648 43.2779 31.3601 41.1146 31.3601 41.1146C31.3601 41.1146 36.0749 36.8158 36.2552 28.3845" fill="#1C093F" style="fill:#1C093F;fill:color(display-p3 0.1113 0.0372 0.2469);fill-opacity:1;"/>
</g>
</g>
<defs>
<clipPath id="clip0_151_1738">
<rect width="110.938" height="110.938" fill="white" style="fill:white;fill-opacity:1;" transform="translate(0.561035 0.650146)"/>
</clipPath>
</defs>
</svg>
