<svg width="112" height="112" viewBox="0 0 112 112" fill="none" xmlns="http://www.w3.org/2000/svg">
<g clip-path="url(#clip0_151_1702)">
<mask id="mask0_151_1702" style="mask-type:luminance" maskUnits="userSpaceOnUse" x="0" y="0" width="112" height="112">
<path d="M111.439 0.371338H0.501221V111.309H111.439V0.371338Z" fill="white" style="fill:white;fill-opacity:1;"/>
</mask>
<g mask="url(#mask0_151_1702)">
<path d="M26.946 42.6247C26.946 42.6247 29.1232 14.5713 56.8854 14.5713C84.6475 14.5713 86.894 42.7356 86.894 42.7356C86.894 42.7356 99.9708 41.6262 99.9708 53.2747C99.9708 64.9509 87.102 63.162 87.102 63.162C87.102 63.162 84.9526 93.4897 58.7852 93.4897C29.5115 93.4897 26.3359 64.6458 26.3359 64.6458C26.3359 64.6458 13.8554 65.6443 12.5657 55.9788C11.0681 44.6077 26.946 42.6108 26.946 42.6108" fill="#FFD6C0" style="fill:#FFD6C0;fill:color(display-p3 1.0000 0.8392 0.7529);fill-opacity:1;"/>
<path d="M89.6675 55.1329L90.3054 54.5644L90.4441 54.4396C90.6105 54.3009 90.2638 54.5782 90.4164 54.4673L90.7492 54.2316C91.2114 53.908 91.7014 53.6214 92.2191 53.3718L92.5797 53.2054L92.649 53.1777L92.7183 53.1499L93.5226 52.8587C94.0773 52.6923 94.632 52.5629 95.1867 52.4704C95.9078 52.3595 96.3654 51.4165 96.1574 50.7648C95.9078 49.9882 95.2283 49.6554 94.4517 49.794C91.9149 50.2187 89.5631 51.3922 87.6984 53.1638C87.1714 53.663 87.1437 54.6337 87.6984 55.1052C88.2531 55.6044 89.0851 55.6599 89.6398 55.1052L89.6675 55.1329ZM17.8353 53.5243L18.0295 53.5382C17.6551 53.5105 17.8769 53.5243 17.974 53.5382L18.39 53.6075L19.1111 53.8017L19.4994 53.9265L19.6658 53.9958C19.6935 53.9958 19.9709 54.1206 19.749 54.0235C19.5549 53.8849 19.749 53.9681 19.7906 53.9819L19.9986 54.0652L20.3592 54.2454L21.0109 54.6614L21.3853 54.9665C21.8198 55.3178 22.2035 55.7015 22.5363 56.1175C22.9939 56.6722 24.0201 56.6306 24.4916 56.1175C25.0463 55.5212 24.9908 54.7585 24.4916 54.1761C22.7926 52.1823 20.3868 50.9247 17.7799 50.6677C17.0588 50.5845 16.3654 51.361 16.3931 52.0544C16.4347 52.8726 17.0033 53.3579 17.7799 53.4411M43.1569 50.8064V57.1021C43.1569 57.8232 43.7948 58.5165 44.5436 58.4888C45.2924 58.4611 45.9303 57.8786 45.9303 57.1021V50.848C45.9303 50.1269 45.2924 49.4335 44.5436 49.4612C43.7948 49.489 43.1569 50.0714 43.1569 50.848M68.728 50.2933L68.52 56.9634C68.52 57.3312 68.6661 57.6839 68.9262 57.944C69.1862 58.204 69.539 58.3501 69.9067 58.3501C70.6833 58.3224 71.2657 57.74 71.2935 56.9634L71.5015 50.3071C71.5015 49.9394 71.3554 49.5866 71.0953 49.3266C70.8353 49.0665 70.4825 48.9204 70.1148 48.9204C69.747 48.9204 69.3943 49.0665 69.1342 49.3266C68.8741 49.5866 68.728 49.9394 68.728 50.3071" fill="black" style="fill:black;fill-opacity:1;"/>
<path d="M50.978 61.5567C56.0536 63.4047 61.6099 63.4536 66.7173 61.6953C68.4091 61.1406 69.1302 63.8031 67.4523 64.3856C61.8698 66.2854 55.8081 66.2365 50.2569 64.2469C49.5636 63.9834 49.0643 63.2901 49.2862 62.5274C49.4526 61.8479 50.2708 61.3071 50.978 61.5567Z" fill="black" style="fill:black;fill-opacity:1;"/>
<path d="M42.7964 45.6618C43.1292 45.292 43.4851 44.9407 43.8642 44.6079L43.989 44.497L44.0445 44.4554C43.878 44.5802 44.0445 44.4554 44.0722 44.4554L44.2386 44.3167L44.8626 43.9007L45.4728 43.554L45.8056 43.3876L45.9997 43.3044C46.0413 43.2905 46.2216 43.2073 46.0275 43.3044L46.0968 43.2766L46.2355 43.2212L46.596 43.0825L47.3587 42.8745C48.0521 42.7081 48.5513 41.8622 48.3294 41.1688C48.1076 40.4755 47.3587 40.0178 46.6238 40.1981C44.3798 40.7334 42.3584 41.9549 40.8411 43.6927C40.3696 44.2473 40.2587 45.121 40.8411 45.6341C41.3681 46.1333 42.2972 46.2304 42.7964 45.6341M68.3121 43.0409C69.1441 43.1796 69.9762 43.3783 70.8082 43.6372L71.3629 43.8452L71.7096 43.97L71.7928 43.9977L71.7096 43.9561C71.7373 44.0116 71.973 44.0671 72.0285 44.0948L72.2643 44.2057L72.9021 44.5247C73.54 44.8714 74.4275 44.705 74.802 44.0255C75.1625 43.3321 74.9822 42.5001 74.3027 42.1257C72.66 41.233 70.8785 40.6235 69.0332 40.3229C68.6449 40.2813 68.3121 40.2675 67.9654 40.4616C67.6521 40.6448 67.4231 40.9435 67.3275 41.2936C67.1888 41.9731 67.5355 42.8884 68.2982 43.0132L68.3121 43.0409Z" fill="black" style="fill:black;fill-opacity:1;"/>
<path d="M37.5823 26.5249C37.5823 26.5249 51.0058 35.4693 77.8389 32.9593C77.8389 32.9593 72.8744 91.7979 87.4073 92.0753C101.94 92.3526 106.502 53.8711 94.6044 29.6034C80.9174 1.64713 30.3159 -1.43139 17.1837 31.2814C4.0514 64.008 16.213 92.9351 25.4069 93.5452C42.4636 94.6546 37.5823 26.5249 37.5823 26.5249Z" fill="#1C093F" style="fill:#1C093F;fill:color(display-p3 0.1113 0.0372 0.2469);fill-opacity:1;"/>
</g>
</g>
<defs>
<clipPath id="clip0_151_1702">
<rect width="110.938" height="110.938" fill="white" style="fill:white;fill-opacity:1;" transform="translate(0.501221 0.371338)"/>
</clipPath>
</defs>
</svg>
