<svg width="164" height="41" viewBox="0 0 164 41" fill="none" xmlns="http://www.w3.org/2000/svg">
<g clip-path="url(#clip0_34_2054)">
<mask id="mask0_34_2054" style="mask-type:luminance" maskUnits="userSpaceOnUse" x="1" y="0" width="163" height="41">
<path d="M163.67 0.125H1.16998V40.125H163.67V0.125Z" fill="white" style="fill:white;fill-opacity:1;"/>
</mask>
<g mask="url(#mask0_34_2054)">
<path d="M45.3491 24.2119H43.0196V22.6895L45.4294 22.6094L45.6704 20.2856H47.3572V22.6094H51.2932V24.2119H47.3572V27.7376C47.3572 28.2985 47.4376 28.8594 47.7589 29.3401C48.1605 29.6606 48.7228 29.901 49.2851 29.8209C49.6064 29.8209 50.008 29.8209 50.3293 29.7408C50.6506 29.6606 50.9719 29.5805 51.2129 29.5004L51.6145 30.9427C51.2129 31.103 50.7309 31.1831 50.3293 31.2632C49.8473 31.3433 49.2851 31.4235 48.8031 31.4235C48.2408 31.4235 47.6785 31.3433 47.1162 31.1831C46.7146 31.0228 46.313 30.7824 46.072 30.4619C45.7507 30.1414 45.5901 29.7408 45.5097 29.26C45.4294 28.7792 45.3491 28.2183 45.3491 27.7376V24.2119Z" fill="#2D344D" style="fill:#2D344D;fill:color(display-p3 0.1765 0.2039 0.3020);fill-opacity:1;"/>
<path d="M53.2208 26.936C53.2208 26.2949 53.3814 25.6539 53.6224 25.0129C53.8634 24.452 54.1847 23.9712 54.5863 23.5706C54.988 23.1699 55.4699 22.8494 56.0322 22.6892C56.5142 22.4488 57.0764 22.3687 57.6387 22.3687C58.201 22.3687 58.7633 22.4488 59.3256 22.6892C59.8075 22.9295 60.2092 23.1699 60.6108 23.4904C60.9321 23.8911 61.1731 24.2917 61.4141 24.7725C61.5747 25.3334 61.655 25.8943 61.655 26.4552V27.0161C61.655 27.1763 61.655 27.3366 61.5747 27.4167H55.3093C55.3896 28.1379 55.7109 28.7789 56.2732 29.2597C56.8355 29.6603 57.4781 29.9007 58.201 29.9007C58.6026 29.9007 59.0846 29.8206 59.4862 29.7404L60.6911 29.2597L61.4141 30.5417C60.9321 30.8622 60.4501 31.1026 59.8879 31.2629C59.3256 31.4231 58.683 31.5033 58.0404 31.5033C57.3977 31.5033 56.7551 31.4231 56.1928 31.1828C55.6306 30.9424 55.1486 30.702 54.6666 30.3013C54.265 29.9007 53.9437 29.4199 53.7027 28.859C53.3814 28.2981 53.2208 27.577 53.2208 26.936ZM59.8075 26.1347C59.8879 25.5738 59.6469 24.9328 59.2452 24.5321C58.8436 24.1315 58.2813 23.8911 57.719 23.9712C57.4781 23.9712 57.1568 24.0513 56.9158 24.1315C56.6748 24.2116 56.4338 24.3719 56.1928 24.5321C55.9519 24.6924 55.7109 24.9328 55.6306 25.2533C55.4699 25.5738 55.3896 25.8943 55.3093 26.2148H59.8075V26.1347Z" fill="#2D344D" style="fill:#2D344D;fill:color(display-p3 0.1765 0.2039 0.3020);fill-opacity:1;"/>
<path d="M63.6641 26.9359C63.6641 26.2949 63.8248 25.6539 64.0658 25.0129C64.3068 24.452 64.7084 23.9712 65.11 23.5706C65.592 23.1699 66.0739 22.9295 66.6362 22.6892C67.8411 22.2885 69.1263 22.2885 70.3312 22.6892C70.8132 22.8494 71.2951 23.1699 71.6968 23.5706L70.7328 24.8526C70.4115 24.6122 70.0902 24.3718 69.6886 24.2116C69.3673 24.0513 68.9657 23.9712 68.564 23.9712C67.0378 23.8911 65.7526 25.093 65.6723 26.6154V26.8558C65.6723 27.2565 65.7526 27.6571 65.9133 28.0577C66.0739 28.3783 66.2346 28.6988 66.4756 28.9392C66.7165 29.1795 67.0378 29.4199 67.3591 29.5001C67.6805 29.6603 68.0821 29.7404 68.4837 29.7404C68.9657 29.7404 69.4476 29.6603 69.8493 29.5001C70.2509 29.3398 70.6525 29.0994 70.9738 28.859L71.7771 30.1411C71.2951 30.5417 70.7328 30.8622 70.0902 31.1026C69.528 31.343 68.8853 31.4231 68.2427 31.4231C67.6001 31.4231 66.9575 31.343 66.3149 31.1026C65.7526 30.9424 65.1903 30.6218 64.7887 30.2212C64.3871 29.8206 64.0658 29.3398 63.8248 28.7789C63.7445 28.1379 63.6641 27.577 63.6641 26.9359Z" fill="#2D344D" style="fill:#2D344D;fill:color(display-p3 0.1765 0.2039 0.3020);fill-opacity:1;"/>
<path d="M73.9454 18.8433H75.9535V22.0484L75.8732 23.8913C76.2749 23.4907 76.7568 23.1702 77.2388 22.8497C77.801 22.5292 78.3633 22.3689 79.0059 22.449C79.8092 22.3689 80.6125 22.6894 81.1748 23.3304C81.737 24.0516 81.978 25.0131 81.8977 25.8945V31.183H79.8895V26.1349C79.9699 25.574 79.8092 25.0933 79.5682 24.6125C79.2469 24.2119 78.765 24.0516 78.283 24.1317C77.8814 24.1317 77.4797 24.2119 77.1584 24.4522C76.7568 24.6926 76.3552 25.0131 76.0339 25.3336V31.183H74.0257L73.9454 18.8433Z" fill="#2D344D" style="fill:#2D344D;fill:color(display-p3 0.1765 0.2039 0.3020);fill-opacity:1;"/>
<path d="M85.0312 22.609H86.7182L86.8788 24.5321H86.9592C87.3608 23.8911 87.9231 23.3302 88.5657 22.9295C89.2083 22.5289 89.9312 22.3687 90.6542 22.3687C90.9755 22.3687 91.2164 22.3687 91.5378 22.4488C91.7787 22.5289 92.0196 22.609 92.341 22.6892L91.9394 24.3719L91.2164 24.1315C90.9755 24.0513 90.6542 24.0513 90.4132 24.0513C89.8509 24.0513 89.2082 24.2116 88.7262 24.5321C88.0836 25.0129 87.5214 25.5738 87.2001 26.2949V31.0225H85.192V22.609H85.0312Z" fill="#2D344D" style="fill:#2D344D;fill:color(display-p3 0.1765 0.2039 0.3020);fill-opacity:1;"/>
<path d="M94.028 26.936C94.028 26.2949 94.1886 25.6539 94.4296 25.0129C94.6706 24.452 94.9919 23.9712 95.3935 23.5706C95.7952 23.1699 96.2771 22.8494 96.8394 22.6892C97.3213 22.4488 97.8836 22.3687 98.4459 22.3687C99.0082 22.3687 99.5705 22.4488 100.133 22.6892C100.615 22.9295 101.016 23.1699 101.418 23.4904C101.739 23.8911 101.98 24.2917 102.221 24.7725C102.382 25.3334 102.462 25.8943 102.462 26.4552V27.0161C102.462 27.1763 102.462 27.3366 102.382 27.4167H96.1165C96.1968 28.1379 96.5181 28.7789 97.0804 29.2597C97.6427 29.6603 98.2853 29.9007 99.0082 29.9007C99.4098 29.9007 99.8918 29.8206 100.293 29.7404L101.498 29.2597L102.221 30.5417C101.739 30.8622 101.257 31.1026 100.695 31.2629C100.133 31.4231 99.4902 31.5033 98.8475 31.5033C98.2049 31.5033 97.5623 31.4231 97 31.1828C96.4378 30.9424 95.9558 30.702 95.4738 30.3013C95.0722 29.9007 94.7509 29.4199 94.5099 28.859C94.1083 28.2981 93.9476 27.577 94.028 26.936ZM100.615 26.1347C100.695 25.5738 100.454 24.9328 100.052 24.5321C99.6508 24.1315 99.0885 23.9712 98.5262 23.9712C98.2853 23.9712 97.964 24.0513 97.723 24.1315C97.482 24.2116 97.241 24.3719 97 24.5321C96.7591 24.6924 96.5181 24.9328 96.4378 25.2533C96.2771 25.5738 96.1968 25.8943 96.1165 26.2148H100.615V26.1347Z" fill="#2D344D" style="fill:#2D344D;fill:color(display-p3 0.1765 0.2039 0.3020);fill-opacity:1;"/>
<path d="M103.826 22.6094H105.834L107.521 27.0966C107.682 27.4972 107.843 27.978 108.003 28.3786C108.164 28.7792 108.244 29.26 108.405 29.6607H108.485C108.646 29.1799 108.726 28.7792 108.887 28.3786C109.047 27.978 109.208 27.4972 109.369 27.0966L111.056 22.6094H112.983L109.61 31.1831H107.28L103.826 22.6094Z" fill="#2D344D" style="fill:#2D344D;fill:color(display-p3 0.1765 0.2039 0.3020);fill-opacity:1;"/>
<path d="M114.752 22.6091H120.536V31.1828H118.527V24.2117H114.752V22.6091ZM119.411 21.0867C119.009 21.0867 118.688 20.9264 118.367 20.686C117.804 20.2053 117.804 19.404 118.286 18.8431L118.367 18.763C118.929 18.2021 119.893 18.2021 120.455 18.763C121.017 19.2437 121.017 20.045 120.536 20.6059L120.455 20.686C120.134 20.9264 119.813 21.0867 119.411 21.0867Z" fill="#2D344D" style="fill:#2D344D;fill:color(display-p3 0.1765 0.2039 0.3020);fill-opacity:1;"/>
<path d="M124.551 26.936C124.551 26.2949 124.712 25.6539 124.952 25.0129C125.193 24.452 125.515 23.9712 125.916 23.5706C126.318 23.1699 126.8 22.8494 127.362 22.6892C127.844 22.4488 128.407 22.3687 128.969 22.3687C129.531 22.3687 130.093 22.4488 130.656 22.6892C131.138 22.9295 131.539 23.1699 131.941 23.4904C132.262 23.8911 132.503 24.2917 132.744 24.7725C132.905 25.3334 132.985 25.8943 132.985 26.4552V27.0161C132.985 27.1763 132.985 27.3366 132.905 27.4167H126.639C126.72 28.1379 127.041 28.7789 127.603 29.2597C128.166 29.6603 128.808 29.9007 129.531 29.9007C129.933 29.9007 130.415 29.8206 130.816 29.7404L132.021 29.2597L132.744 30.5417C132.262 30.8622 131.78 31.1026 131.218 31.2629C130.656 31.4231 130.013 31.5033 129.37 31.5033C128.728 31.5033 128.085 31.4231 127.523 31.1828C126.961 30.9424 126.479 30.702 125.997 30.3013C125.595 29.9007 125.274 29.4199 125.033 28.859C124.712 28.2981 124.551 27.577 124.551 26.936ZM131.138 26.1347C131.218 25.5738 130.977 24.9328 130.575 24.5321C130.174 24.1315 129.611 23.9712 129.049 23.9712C128.808 23.9712 128.487 24.0513 128.246 24.1315C128.005 24.2116 127.764 24.3719 127.523 24.5321C127.282 24.6924 127.041 24.9328 126.961 25.2533C126.8 25.5738 126.72 25.8943 126.639 26.2148H131.138V26.1347Z" fill="#2D344D" style="fill:#2D344D;fill:color(display-p3 0.1765 0.2039 0.3020);fill-opacity:1;"/>
<path d="M133.789 22.6094H135.797L136.601 27.0966C136.681 27.4972 136.761 27.8978 136.761 28.2985C136.842 28.6991 136.842 29.0998 136.922 29.5805H137.002C137.083 29.1799 137.163 28.6991 137.163 28.2985L137.404 27.0966L138.207 23.4908H139.733L140.537 27.0966L140.778 28.2985C140.858 28.6991 140.938 29.0998 141.019 29.5805H141.099C141.179 29.1799 141.259 28.6991 141.259 28.2985C141.34 27.8978 141.34 27.4972 141.42 27.0966L142.223 22.6094H144.071L142.464 31.1831H140.055L139.332 27.5773L139.091 26.3754C139.01 25.9748 138.93 25.5741 138.85 25.0933H138.769C138.689 25.4139 138.689 25.8145 138.609 26.2151C138.528 26.6158 138.448 27.0966 138.368 27.6575L137.645 31.2632H135.315L133.789 22.6094Z" fill="#2D344D" style="fill:#2D344D;fill:color(display-p3 0.1765 0.2039 0.3020);fill-opacity:1;"/>
<path d="M144.953 26.936C144.953 26.2949 145.114 25.6539 145.355 25.0129C145.596 24.452 145.917 23.9712 146.319 23.5706C146.72 23.1699 147.202 22.8494 147.765 22.6892C148.247 22.4488 148.809 22.3687 149.371 22.3687C149.933 22.3687 150.496 22.4488 151.058 22.6892C151.54 22.9295 151.942 23.1699 152.343 23.4904C152.665 23.8911 152.905 24.2917 153.146 24.7725C153.307 25.3334 153.387 25.8943 153.387 26.4552V27.0161C153.387 27.1763 153.387 27.3366 153.307 27.4167H147.042C147.122 28.1379 147.443 28.7789 148.006 29.2597C148.568 29.6603 149.21 29.9007 149.933 29.9007C150.335 29.9007 150.817 29.8206 151.219 29.7404L152.424 29.2597L153.146 30.5417C152.665 30.8622 152.183 31.1026 151.62 31.2629C151.058 31.4231 150.415 31.5033 149.773 31.5033C149.13 31.5033 148.488 31.4231 147.925 31.1828C147.363 30.9424 146.881 30.702 146.399 30.3013C145.997 29.9007 145.596 29.4199 145.435 28.859C145.114 28.2981 144.953 27.577 144.953 26.936ZM151.54 26.1347C151.62 25.5738 151.379 24.9328 150.978 24.5321C150.576 24.1315 150.014 23.8911 149.451 23.9712C149.21 23.9712 148.889 24.0513 148.648 24.1315C148.407 24.2116 148.166 24.3719 147.925 24.5321C147.684 24.6924 147.443 24.9328 147.363 25.2533C147.202 25.5738 147.122 25.8943 147.042 26.2148H151.54V26.1347Z" fill="#2D344D" style="fill:#2D344D;fill:color(display-p3 0.1765 0.2039 0.3020);fill-opacity:1;"/>
<path d="M156.359 22.609H158.046L158.207 24.5321H158.287C158.689 23.8911 159.251 23.3302 159.894 22.9295C160.536 22.5289 161.259 22.3687 161.982 22.3687C162.304 22.3687 162.545 22.3687 162.866 22.4488C163.107 22.5289 163.348 22.609 163.669 22.6892L163.268 24.3719L162.545 24.1315C162.304 24.0513 161.982 24.0513 161.741 24.0513C161.179 24.0513 160.536 24.2116 160.054 24.5321C159.412 25.0129 158.85 25.5738 158.528 26.2949V31.0225H156.52V22.609H156.359Z" fill="#2D344D" style="fill:#2D344D;fill:color(display-p3 0.1765 0.2039 0.3020);fill-opacity:1;"/>
<path d="M18.7614 3.4585L24.1433 14.4361L36.2726 16.1989L27.517 24.6925L29.6055 36.7918L18.7614 31.1027L7.91738 36.7918L9.92554 24.6925L1.16998 16.1989L13.2993 14.4361L18.7614 3.4585Z" fill="#2D344D" style="fill:#2D344D;fill:color(display-p3 0.1765 0.2039 0.3020);fill-opacity:1;"/>
<path d="M43.1803 8.18614C43.7425 8.10601 44.5458 8.02588 45.2687 8.02588C46.3933 8.02588 47.1966 8.26626 47.6785 8.74703C48.0802 9.14767 48.3211 9.70857 48.3211 10.3496C48.3211 11.4714 47.5982 12.1925 46.7146 12.5131C47.3572 12.7534 47.7589 13.3143 47.9195 14.1958C48.1605 15.3977 48.4015 16.199 48.5621 16.5195H47.4376C47.2769 16.2791 47.1163 15.5579 46.8753 14.5163C46.6343 13.3945 46.1523 12.9137 45.1884 12.9137H44.1442V16.5195H43.0196V8.18614H43.1803ZM44.2245 12.0323H45.3491C46.4736 12.0323 47.2769 11.3913 47.2769 10.4297C47.2769 9.30793 46.4736 8.90729 45.3491 8.82716C44.7868 8.82716 44.4655 8.90729 44.3048 8.90729V12.0323H44.2245Z" fill="#2D344D" style="fill:#2D344D;fill:color(display-p3 0.1765 0.2039 0.3020);fill-opacity:1;"/>
<path d="M54.2657 12.513H50.9723V15.5579H54.587V16.4393H49.8477V8.10596H54.4263V8.98737H50.9723V11.6316H54.2657V12.513Z" fill="#2D344D" style="fill:#2D344D;fill:color(display-p3 0.1765 0.2039 0.3020);fill-opacity:1;"/>
<path d="M57.9597 16.4393L55.2286 8.10596H56.4335L57.7187 12.2726C58.1203 13.3944 58.3613 14.4361 58.6023 15.3976C58.8433 14.4361 59.1646 13.3944 59.5662 12.2726L61.0121 8.10596H62.217L59.2449 16.5194H57.9597V16.4393Z" fill="#2D344D" style="fill:#2D344D;fill:color(display-p3 0.1765 0.2039 0.3020);fill-opacity:1;"/>
<path d="M64.1461 8.10596V16.5194H63.0216V8.10596H64.1461Z" fill="#2D344D" style="fill:#2D344D;fill:color(display-p3 0.1765 0.2039 0.3020);fill-opacity:1;"/>
<path d="M70.4102 12.513H67.1168V15.5579H70.7315V16.4393H65.9923V8.10596H70.5709V8.98737H67.1168V11.6316H70.4102V12.513Z" fill="#2D344D" style="fill:#2D344D;fill:color(display-p3 0.1765 0.2039 0.3020);fill-opacity:1;"/>
<path d="M73.704 16.4393L71.5352 8.10596H72.6598L73.6237 12.3528C73.8647 13.3944 74.1057 14.4361 74.2663 15.2374C74.427 14.4361 74.668 13.3944 74.9893 12.3528L76.1138 8.10596H77.2384L78.2826 12.3528C78.5236 13.3143 78.7646 14.356 78.8449 15.2374C79.0056 14.356 79.2466 13.3944 79.4875 12.3528L80.6924 8.10596H81.817L79.4072 16.5194H78.2826L77.2384 12.1124C76.9974 11.0707 76.8368 10.1893 76.6761 9.38801C76.5155 10.1893 76.3548 11.0707 76.0335 12.1124L74.8286 16.5194H73.704V16.4393Z" fill="#2D344D" style="fill:#2D344D;fill:color(display-p3 0.1765 0.2039 0.3020);fill-opacity:1;"/>
<path d="M87.2793 12.513H83.986V15.5579H87.6007V16.4393H82.8614V8.10596H87.44V8.98737H83.986V11.6316H87.2793V12.513Z" fill="#2D344D" style="fill:#2D344D;fill:color(display-p3 0.1765 0.2039 0.3020);fill-opacity:1;"/>
<path d="M89.047 8.18614C89.6896 8.10601 90.4928 8.02588 91.3764 8.02588C92.9026 8.02588 94.0272 8.42652 94.7501 9.06755C95.4731 9.7887 95.955 10.7502 95.955 12.1124C95.955 13.4746 95.5534 14.5964 94.7501 15.3977C93.9469 16.199 92.6616 16.5996 91.0551 16.5996C90.2518 16.5996 89.6092 16.5996 89.047 16.5195V8.18614ZM90.0912 15.5579C90.3322 15.6381 90.7338 15.6381 91.2158 15.6381C93.5452 15.6381 94.8304 14.356 94.8304 12.1124C94.8304 10.1092 93.7059 8.90729 91.4567 8.90729C90.8945 8.90729 90.4928 8.98742 90.1715 8.98742V15.5579H90.0912Z" fill="#2D344D" style="fill:#2D344D;fill:color(display-p3 0.1765 0.2039 0.3020);fill-opacity:1;"/>
<path d="M99.9708 8.18614C100.453 8.10601 101.176 8.02588 101.979 8.02588C103.104 8.02588 103.746 8.18614 104.308 8.6669C104.71 8.98742 105.031 9.46819 105.031 10.1092C105.031 10.9105 104.469 11.6316 103.585 11.9522C104.389 12.1124 105.353 12.8336 105.353 14.0355C105.353 14.7566 105.031 15.3175 104.63 15.7182C104.067 16.2791 103.104 16.5195 101.738 16.5195C101.015 16.5195 100.453 16.4393 100.051 16.4393V8.18614H99.9708ZM101.095 11.6316H102.059C103.184 11.6316 103.907 11.0708 103.907 10.1893C103.907 9.2278 103.184 8.82716 102.059 8.82716C101.577 8.82716 101.256 8.82716 101.095 8.90729V11.6316ZM101.095 15.6381C101.336 15.6381 101.658 15.7182 101.979 15.7182C103.104 15.7182 104.148 15.3175 104.148 14.1156C104.148 12.9938 103.184 12.5131 101.979 12.5131H101.095V15.6381Z" fill="#2D344D" style="fill:#2D344D;fill:color(display-p3 0.1765 0.2039 0.3020);fill-opacity:1;"/>
<path d="M108.405 16.4393V12.9136L105.754 8.10596H106.959L108.164 10.4297C108.485 11.0707 108.726 11.5515 108.967 12.1925C109.208 11.6316 109.529 11.0707 109.851 10.4297L111.056 8.10596H112.26L109.449 12.9136V16.5194H108.405V16.4393Z" fill="#2D344D" style="fill:#2D344D;fill:color(display-p3 0.1765 0.2039 0.3020);fill-opacity:1;"/>
</g>
</g>
<defs>
<clipPath id="clip0_34_2054">
<rect width="163" height="40" fill="white" style="fill:white;fill-opacity:1;" transform="translate(0.919983 0.125)"/>
</clipPath>
</defs>
</svg>
