<svg width="140" height="41" viewBox="0 0 140 41" fill="none" xmlns="http://www.w3.org/2000/svg">
<mask id="mask0_34_2086" style="mask-type:luminance" maskUnits="userSpaceOnUse" x="1" y="0" width="138" height="41">
<path d="M138.93 0.125H1.42993V40.125H138.93V0.125Z" fill="white" style="fill:white;fill-opacity:1;"/>
</mask>
<g mask="url(#mask0_34_2086)">
<path d="M37.4934 15.1939H51.3885V17.7399H45.9258V32.0556H42.9199V17.7399H37.4807V15.1929H37.4924L37.4934 15.1939ZM50.7954 19.8458H53.364V22.2027H53.4121C53.4973 21.8693 53.6542 21.5478 53.8846 21.238C54.3772 20.574 55.044 20.0592 55.8111 19.7507C56.2007 19.5963 56.6155 19.5155 57.0346 19.5125C57.3483 19.5125 57.5797 19.5242 57.7013 19.537C57.8219 19.5488 57.9424 19.5723 58.0758 19.584V22.1782C57.8791 22.1437 57.6812 22.116 57.4826 22.0948C57.2855 22.0715 57.0871 22.0597 56.8885 22.0595C56.4277 22.0595 55.9924 22.1546 55.5807 22.334C55.1689 22.5115 54.817 22.785 54.515 23.1311C54.1928 23.5181 53.9461 23.962 53.7875 24.4399C53.6062 24.9635 53.5209 25.5576 53.5209 26.237V32.0439H50.7836V19.8458H50.7954ZM70.663 32.0566H67.9738V30.3546H67.9248C67.5856 30.9742 67.0895 31.4625 66.4228 31.8311C65.7562 32.1997 65.0777 32.3899 64.3875 32.3899C62.7523 32.3899 61.564 31.9978 60.8385 31.1997C60.1111 30.4027 59.7473 29.2007 59.7473 27.5939V19.8468H62.4856V27.3321C62.4856 28.4037 62.6915 29.1654 63.116 29.6056C63.5277 30.0458 64.1209 30.2723 64.8719 30.2723C65.4532 30.2723 65.9258 30.189 66.313 30.0095C66.7013 29.8311 67.016 29.6056 67.2464 29.3076C67.4885 29.0223 67.6581 28.6654 67.7679 28.2605C67.8758 27.8556 67.9248 27.4154 67.9248 26.9399V19.8586H70.663V32.0566ZM75.3268 28.1419C75.4121 28.9262 75.714 29.4752 76.2356 29.7958C76.7679 30.1056 77.3983 30.2723 78.1375 30.2723C78.3924 30.2723 78.6826 30.2478 79.0101 30.2125C79.3366 30.1762 79.6513 30.0929 79.9307 29.987C80.2209 29.8791 80.4503 29.7125 80.6444 29.4988C80.8268 29.2831 80.9111 29.0105 80.8993 28.6654C80.8977 28.5053 80.8624 28.3472 80.7957 28.2016C80.729 28.056 80.6323 27.9261 80.5121 27.8203C80.2689 27.5948 79.967 27.4282 79.5905 27.285C79.1711 27.1397 78.7419 27.0244 78.3062 26.9399C77.8219 26.8448 77.3375 26.737 76.8415 26.6301C76.3417 26.522 75.8482 26.3868 75.363 26.2252C74.908 26.0794 74.4789 25.8627 74.0915 25.5831C73.7139 25.3196 73.4061 24.9684 73.1944 24.5595C72.965 24.1429 72.8552 23.6311 72.8552 23.0125C72.8552 22.3458 73.0248 21.7988 73.3523 21.3458C73.6825 20.8967 74.1089 20.5269 74.6003 20.2635C75.1284 19.9843 75.696 19.7876 76.2836 19.6801C76.9013 19.5733 77.4954 19.5135 78.0522 19.5135C78.6944 19.5135 79.3121 19.585 79.8944 19.7164C80.4582 19.8371 80.9956 20.0586 81.4807 20.3703C81.9532 20.6684 82.3405 21.0605 82.6562 21.537C82.9709 22.0125 83.165 22.5958 83.2493 23.2742H80.3905C80.2572 22.6321 79.966 22.1919 79.4944 21.9772C79.0219 21.7517 78.4768 21.6439 77.8709 21.6439C77.6768 21.6439 77.4464 21.6556 77.1807 21.6919C76.9247 21.7259 76.6727 21.7857 76.4287 21.8703C76.2057 21.9525 76.0033 22.0823 75.8356 22.2507C75.7542 22.3386 75.6909 22.4417 75.6493 22.5541C75.6078 22.6664 75.5888 22.7859 75.5934 22.9056C75.5934 23.2389 75.714 23.5007 75.9444 23.7027C76.1748 23.9046 76.4777 24.0713 76.8532 24.2144C77.2287 24.3458 77.6532 24.4644 78.1375 24.5595C78.6219 24.6546 79.1179 24.7615 79.6277 24.8693C80.1238 24.9762 80.6081 25.1193 81.0934 25.2733C81.5777 25.4282 82.0013 25.6429 82.3777 25.9164C82.7532 26.1899 83.0562 26.5233 83.2856 26.9282C83.516 27.3321 83.6375 27.8439 83.6375 28.4389C83.6375 29.1644 83.4679 29.7723 83.1277 30.284C82.7895 30.784 82.3532 31.1997 81.8199 31.5095C81.2616 31.8312 80.6566 32.064 80.0268 32.1997C79.386 32.3407 78.7319 32.4124 78.0758 32.4135C77.341 32.4217 76.6083 32.3337 75.8964 32.1517C75.2297 31.9733 74.6483 31.7115 74.164 31.3674C73.6853 31.0196 73.2918 30.5677 73.013 30.0458C72.7346 29.5223 72.5885 28.8909 72.565 28.1654H75.3268V28.1419ZM84.364 19.8478H86.4356V16.1811H89.1738V19.8478H91.6444V21.8576H89.1748V28.3801C89.1748 28.6644 89.1866 28.9037 89.2111 29.1174C89.2346 29.3203 89.2954 29.4988 89.3807 29.6409C89.4733 29.7903 89.6141 29.9037 89.7797 29.9625C89.9621 30.034 90.1915 30.0703 90.5072 30.0703C90.7003 30.0703 90.8944 30.0703 91.0885 30.0576C91.2826 30.0458 91.4758 30.0223 91.6699 29.9742V32.0566C91.367 32.0929 91.064 32.1164 90.7856 32.1517C90.4921 32.1858 90.1967 32.2019 89.9013 32.1997C89.1748 32.1997 88.5934 32.1282 88.1562 31.9978C87.7209 31.8664 87.3689 31.6644 87.1268 31.4027C86.8719 31.1409 86.715 30.8193 86.6179 30.4262C86.5236 29.9841 86.471 29.5341 86.4611 29.0821V21.8801H84.3895V19.8448H84.365L84.364 19.8478ZM93.5826 19.8478H96.1758V21.5007H96.2248C96.6111 20.787 97.1444 20.287 97.8346 19.9782C98.5401 19.6645 99.3047 19.506 100.077 19.5135C101.057 19.5135 101.905 19.6801 102.633 20.0252C103.359 20.3586 103.965 20.8233 104.449 21.4174C104.934 22.0125 105.286 22.7027 105.528 23.4889C105.775 24.3069 105.897 25.1572 105.892 26.0115C105.892 26.8321 105.783 27.6291 105.564 28.3919C105.363 29.1276 105.031 29.8209 104.583 30.438C104.142 31.0329 103.57 31.5178 102.911 31.8546C102.233 32.2115 101.445 32.3899 100.525 32.3899C100.122 32.3895 99.7208 32.3534 99.3248 32.2821C98.9298 32.2109 98.544 32.0955 98.1748 31.938C97.808 31.7849 97.465 31.5802 97.1562 31.3301C96.8513 31.087 96.5858 30.7983 96.3689 30.4742H96.3199V36.5674H93.5826V19.8458V19.8478ZM103.153 25.9635C103.154 25.4208 103.081 24.8805 102.936 24.3576C102.801 23.8621 102.58 23.3946 102.281 22.9772C101.997 22.5801 101.629 22.2506 101.203 22.0125C100.746 21.7653 100.233 21.6384 99.713 21.6439C98.5621 21.6439 97.6895 22.036 97.1081 22.8223C96.5268 23.6076 96.2356 24.6556 96.2356 25.9635C96.2356 26.5821 96.3091 27.1537 96.466 27.6772C96.6228 28.2007 96.8415 28.6537 97.1562 29.034C97.4601 29.4154 97.8228 29.7125 98.2473 29.9262C98.6709 30.1527 99.1679 30.2595 99.7248 30.2595C100.355 30.2595 100.876 30.1291 101.312 29.8791C101.735 29.6361 102.098 29.3031 102.378 28.9037C102.656 28.4988 102.863 28.0458 102.984 27.535C103.095 27.0186 103.152 26.4918 103.153 25.9635ZM107.987 15.1939H110.725V17.7409H107.987V15.1939ZM107.987 19.8468H110.725V32.0566H107.987V19.8468ZM113.172 15.1939H115.91V32.0566H113.172V15.1939ZM124.305 32.3899C123.311 32.3899 122.427 32.2233 121.652 31.9027C120.91 31.5981 120.238 31.1443 119.678 30.5693C119.133 29.9828 118.717 29.2898 118.453 28.534C118.165 27.6998 118.022 26.8225 118.03 25.9399C118.03 25.0115 118.175 24.1556 118.453 23.3693C118.717 22.614 119.134 21.9213 119.678 21.335C120.21 20.7635 120.877 20.3233 121.652 20.0017C122.427 19.6801 123.311 19.5135 124.305 19.5135C125.298 19.5135 126.183 19.6801 126.958 20.0017C127.734 20.3233 128.388 20.7762 128.933 21.335C129.477 21.9211 129.894 22.6139 130.156 23.3693C130.435 24.1546 130.58 25.0115 130.58 25.9399C130.58 26.8811 130.435 27.7488 130.156 28.534C129.894 29.2899 129.477 29.983 128.933 30.5693C128.399 31.1409 127.734 31.5811 126.958 31.9027C126.183 32.2233 125.298 32.3899 124.305 32.3899ZM124.305 30.2595C124.911 30.2595 125.444 30.1291 125.892 29.8791C126.328 29.6361 126.705 29.2984 126.995 28.8909C127.285 28.487 127.491 28.0223 127.637 27.5105C127.77 26.9988 127.843 26.4752 127.843 25.9399C127.843 25.4164 127.77 24.9046 127.637 24.3811C127.512 23.8845 127.294 23.4161 126.995 23.0007C126.705 22.5971 126.328 22.2637 125.892 22.0252C125.444 21.7752 124.911 21.6439 124.305 21.6439C123.699 21.6439 123.166 21.7752 122.718 22.0252C122.285 22.2674 121.909 22.6001 121.616 23.0007C121.321 23.4186 121.103 23.8862 120.974 24.3811C120.84 24.89 120.77 25.4137 120.767 25.9399C120.767 26.4752 120.841 26.9988 120.974 27.5105C121.107 28.0223 121.325 28.487 121.616 28.8909C121.906 29.2958 122.27 29.6291 122.718 29.8791C123.166 30.1409 123.699 30.2595 124.305 30.2595ZM131.38 19.8478H133.451V16.1811H136.19V19.8478H138.66V21.8576H136.19V28.3801C136.19 28.6644 136.201 28.9037 136.225 29.1174C136.249 29.3203 136.31 29.4988 136.395 29.6409C136.488 29.7904 136.629 29.9039 136.795 29.9625C136.977 30.034 137.206 30.0703 137.522 30.0703C137.715 30.0703 137.909 30.0703 138.103 30.0576C138.297 30.0458 138.491 30.0223 138.685 29.9742V32.0566C138.382 32.0929 138.079 32.1164 137.8 32.1517C137.507 32.1858 137.212 32.2018 136.916 32.1997C136.19 32.1997 135.607 32.1282 135.171 31.9978C134.736 31.8664 134.384 31.6644 134.142 31.4027C133.888 31.1409 133.73 30.8193 133.633 30.4262C133.539 29.9841 133.486 29.534 133.476 29.0821V21.8801H131.404V19.8448H131.38V19.8478Z" fill="#2D344D" style="fill:#2D344D;fill:color(display-p3 0.1765 0.2039 0.3020);fill-opacity:1;"/>
<path d="M34.2956 15.1928H21.7456L17.8691 3.4585L13.9789 15.1938L1.42993 15.181L11.5936 22.4399L7.70542 34.1614L17.8691 26.9144L28.0211 34.1614L24.1446 22.4399L34.2956 15.1928Z" fill="#2D344D" style="fill:#2D344D;fill:color(display-p3 0.1765 0.2039 0.3020);fill-opacity:1;"/>
<path d="M25.0164 25.0944L24.1439 22.4404L17.8694 26.9149L25.0164 25.0944Z" fill="#616D9A" style="fill:#616D9A;fill:color(display-p3 0.3804 0.4275 0.6039);fill-opacity:1;"/>
</g>
</svg>
