<svg width="24" height="24" viewBox="0 0 24 24" fill="none" xmlns="http://www.w3.org/2000/svg">
<rect width="24" height="24" rx="4" fill="#1C1C1C" style="fill:#1C1C1C;fill:color(display-p3 0.1089 0.1089 0.1089);fill-opacity:1;"/>
<path d="M14.018 7.134V7.13184H14.5807L14.7863 7.1729C14.9234 7.19955 15.0478 7.23449 15.1596 7.27771C15.2714 7.32093 15.3796 7.37136 15.4842 7.42899C15.5888 7.48662 15.6837 7.54533 15.7688 7.60512C15.8532 7.6642 15.929 7.72687 15.996 7.79314C16.0624 7.86013 16.1659 7.87742 16.3066 7.84501C16.4473 7.81259 16.5987 7.76756 16.761 7.70994C16.9234 7.65231 17.0839 7.58748 17.2426 7.51543C17.4013 7.44339 17.4979 7.39765 17.5326 7.3782C17.5665 7.35804 17.5845 7.34723 17.5867 7.34579L17.5888 7.34255L17.5996 7.33714L17.6105 7.33174L17.6213 7.32634L17.6321 7.32093L17.6343 7.31769L17.6375 7.31553L17.6408 7.31337L17.6429 7.31013L17.6537 7.30689L17.6646 7.30473L17.6624 7.32093L17.6592 7.33714L17.6537 7.35335L17.6483 7.36956L17.6429 7.38036L17.6375 7.39117L17.6321 7.40738C17.6285 7.41818 17.6249 7.43259 17.6213 7.4506C17.6177 7.46861 17.5834 7.54064 17.5185 7.66671C17.4536 7.79278 17.3724 7.92065 17.275 8.05031C17.1776 8.17998 17.0904 8.27794 17.0132 8.34422C16.9353 8.41122 16.8837 8.45804 16.8584 8.4847C16.8332 8.51207 16.8025 8.53728 16.7665 8.56034L16.7124 8.596L16.7015 8.6014L16.6907 8.6068L16.6886 8.61004L16.6853 8.6122L16.6821 8.61436L16.6799 8.61761L16.6691 8.62301L16.6583 8.62841L16.6561 8.63165L16.6528 8.63382L16.6496 8.63598L16.6474 8.63922L16.6453 8.64246L16.642 8.64462L16.6388 8.64678L16.6366 8.65002H16.6907L16.9937 8.58519C17.1957 8.54197 17.3886 8.48974 17.5726 8.42851L17.8647 8.33126L17.8972 8.32045L17.9134 8.31505L17.9243 8.30965L17.9351 8.30424L17.9459 8.29884L17.9567 8.29344L17.9784 8.2902L18 8.28804V8.30965L17.9946 8.31181L17.9892 8.31505L17.987 8.31829L17.9838 8.32045L17.9805 8.32261L17.9784 8.32586L17.9762 8.3291L17.9729 8.33126L17.9697 8.33342L17.9675 8.33666L17.9654 8.3399L17.9621 8.34206L17.9567 8.35287L17.9513 8.36367L17.9481 8.36584C17.9466 8.368 17.9008 8.42922 17.8106 8.54953C17.7205 8.67055 17.6718 8.73178 17.6646 8.73323C17.6574 8.73539 17.6472 8.74619 17.6343 8.76564C17.622 8.78581 17.5455 8.86614 17.4049 9.00661C17.2642 9.14708 17.1264 9.27206 16.9915 9.38156C16.8559 9.49178 16.7874 9.62721 16.7859 9.78785C16.7838 9.94778 16.7755 10.1286 16.761 10.3303C16.7466 10.532 16.7196 10.7499 16.6799 10.984C16.6402 11.2182 16.5789 11.4829 16.4959 11.7782C16.413 12.0736 16.312 12.3617 16.193 12.6427C16.0739 12.9236 15.9495 13.1758 15.8197 13.3991C15.6898 13.6224 15.5708 13.8115 15.4626 13.9664C15.3544 14.1213 15.2444 14.2671 15.1326 14.404C15.0207 14.5409 14.8794 14.695 14.7084 14.8665C14.5367 15.0372 14.4429 15.1309 14.4271 15.1474C14.4105 15.1633 14.3398 15.2224 14.215 15.3246C14.0909 15.4277 13.9574 15.5307 13.8146 15.6337C13.6725 15.736 13.5419 15.8213 13.4229 15.8898C13.3039 15.9582 13.1603 16.0364 12.9922 16.1243C12.8249 16.2129 12.6438 16.295 12.4491 16.3706C12.2543 16.4463 12.0487 16.5165 11.8323 16.5813C11.6159 16.6462 11.4067 16.6966 11.2047 16.7326C11.0027 16.7686 10.7737 16.7993 10.5176 16.8245L10.1335 16.8623V16.8677H9.43012V16.8623L9.33814 16.8569C9.27683 16.8533 9.22633 16.8497 9.18665 16.8461C9.14699 16.8425 8.99729 16.8227 8.7376 16.7866C8.47791 16.7506 8.27412 16.7146 8.12624 16.6786C7.97837 16.6426 7.75834 16.5741 7.46619 16.4733C7.17403 16.3724 6.92408 16.2705 6.71632 16.1675C6.50929 16.0652 6.37944 16.0004 6.32678 15.973C6.27484 15.9463 6.21641 15.9132 6.15149 15.8736L6.0541 15.8141L6.05195 15.8109L6.04869 15.8087L6.04545 15.8066L6.04328 15.8033L6.03246 15.7979L6.02164 15.7925L6.01949 15.7893L6.01623 15.7871L6.01298 15.785L6.01082 15.7817L6.00867 15.7785L6.00541 15.7763H6V15.7547L6.01082 15.7569L6.02164 15.7601L6.07033 15.7655C6.1028 15.7691 6.19117 15.7745 6.33544 15.7817C6.47972 15.7889 6.633 15.7889 6.79531 15.7817C6.95762 15.7745 7.12354 15.7583 7.29306 15.7331C7.46258 15.7079 7.66276 15.6647 7.8936 15.6034C8.12444 15.5422 8.33653 15.4694 8.52986 15.3852C8.72246 15.3002 8.85952 15.2368 8.94104 15.195C9.02183 15.1539 9.14518 15.0776 9.31109 14.9659L9.55996 14.7984L9.56213 14.7952L9.56537 14.793L9.56863 14.7908L9.57078 14.7876L9.57295 14.7844L9.57619 14.7822L9.57945 14.78L9.58161 14.7768L9.59243 14.7736L9.60325 14.7714L9.60541 14.7606L9.60866 14.7498L9.61191 14.7476L9.61407 14.7444L9.5275 14.739C9.4698 14.7354 9.41389 14.7318 9.35978 14.7282C9.30568 14.7246 9.22092 14.7084 9.1055 14.6796C8.99009 14.6507 8.86565 14.6075 8.73219 14.5499C8.59874 14.4923 8.46889 14.4238 8.34265 14.3446C8.21642 14.2653 8.12516 14.1994 8.06889 14.1468C8.01335 14.095 7.94121 14.0215 7.85248 13.9264C7.76448 13.8306 7.68801 13.7323 7.62308 13.6314C7.55816 13.5306 7.49613 13.4142 7.43698 13.2824L7.34716 13.0857L7.34175 13.0695L7.33634 13.0533L7.33309 13.0425L7.33093 13.0317L7.34716 13.0339L7.36339 13.0371L7.48242 13.0533C7.56177 13.0641 7.68621 13.0677 7.85573 13.0641C8.02525 13.0605 8.14247 13.0533 8.20739 13.0425C8.27232 13.0317 8.312 13.0245 8.32642 13.0209L8.34806 13.0155L8.37511 13.0101L8.40216 13.0047L8.40433 13.0014L8.40757 12.9993L8.41083 12.9971L8.41298 12.9939L8.39134 12.9885L8.3697 12.9831L8.34806 12.9777L8.32642 12.9723L8.30478 12.9669C8.29036 12.9633 8.26511 12.9561 8.22904 12.9453C8.19297 12.9344 8.09559 12.8948 7.93688 12.8264C7.77819 12.758 7.65194 12.6913 7.55816 12.6265C7.46415 12.5615 7.3745 12.4904 7.28981 12.4136C7.20541 12.3358 7.11272 12.2357 7.01172 12.1132C6.91073 11.9908 6.82057 11.8485 6.74121 11.6864C6.66186 11.5243 6.60235 11.3694 6.56267 11.2218C6.52315 11.0749 6.49708 10.9249 6.48477 10.7733L6.46528 10.5464L6.4761 10.5486L6.48693 10.5518L6.49775 10.5572L6.50857 10.5626L6.51939 10.568L6.53021 10.5734L6.69793 10.6491C6.80975 10.6995 6.94861 10.7427 7.11452 10.7787C7.28044 10.8147 7.37962 10.8346 7.41208 10.8382L7.46078 10.8436H7.55816L7.55601 10.8403L7.55275 10.8382L7.5495 10.836L7.54734 10.8328L7.54519 10.8295L7.54193 10.8274L7.53868 10.8252L7.53652 10.8219L7.5257 10.8165L7.51488 10.8111L7.51272 10.8079L7.50947 10.8057L7.50622 10.8036L7.50406 10.8003L7.49324 10.7949L7.48242 10.7895L7.48026 10.7863C7.4781 10.7848 7.44708 10.7618 7.3872 10.7171C7.32804 10.6718 7.26601 10.613 7.20108 10.541C7.13616 10.469 7.07124 10.3933 7.00631 10.3141C6.94127 10.2347 6.88334 10.1497 6.83318 10.0602C6.78269 9.97011 6.72931 9.85556 6.67304 9.71654C6.6175 9.57822 6.5753 9.43883 6.54644 9.29836C6.51759 9.15789 6.50136 9.01922 6.49775 8.88234C6.49414 8.74547 6.49775 8.62841 6.50857 8.53116C6.51939 8.43391 6.54103 8.32405 6.57349 8.20159C6.60595 8.07913 6.65285 7.94946 6.71416 7.81259L6.80613 7.60728L6.81154 7.59107L6.81695 7.57487L6.82021 7.5727L6.82236 7.56946L6.82453 7.56622L6.82777 7.56406L6.83103 7.56622L6.83318 7.56946L6.83535 7.5727L6.83859 7.57487L6.84185 7.57703L6.844 7.58027L6.84617 7.58351L6.84941 7.58567L6.85482 7.59648L6.86023 7.60728L6.86349 7.60944L6.86564 7.61269L7.01172 7.77477C7.10911 7.88283 7.22453 8.00349 7.35798 8.13676C7.49144 8.27002 7.56538 8.33918 7.5798 8.34422C7.59424 8.34998 7.61226 8.36655 7.6339 8.39393C7.65555 8.42059 7.72769 8.48434 7.85032 8.58519C7.97296 8.68604 8.13346 8.80311 8.33183 8.93637C8.53021 9.06964 8.75023 9.20111 8.99188 9.33078C9.23355 9.46044 9.49324 9.5775 9.77096 9.68196C10.0487 9.78642 10.2435 9.85485 10.3553 9.88727C10.4671 9.91968 10.6583 9.9611 10.9288 10.0115C11.1993 10.062 11.4031 10.0944 11.5401 10.1088C11.6772 10.1232 11.771 10.1315 11.8215 10.1336L11.8972 10.1358L11.8951 10.1196L11.8918 10.1034L11.8702 9.96831C11.8557 9.87826 11.8485 9.7522 11.8485 9.59011C11.8485 9.42803 11.8611 9.27855 11.8864 9.14168C11.9116 9.0048 11.9495 8.86614 12 8.72566C12.0505 8.58519 12.0999 8.47244 12.1482 8.38745C12.1973 8.30316 12.2615 8.20699 12.3408 8.09894C12.4202 7.99088 12.523 7.87923 12.6492 7.76396C12.7755 7.6487 12.9197 7.54605 13.0821 7.456C13.2444 7.36596 13.3941 7.29752 13.5311 7.2507C13.6682 7.20388 13.7836 7.17325 13.8774 7.15885C13.9711 7.14445 14.018 7.13616 14.018 7.134Z" fill="white" style="fill:white;fill-opacity:1;"/>
</svg>
