<svg width="1919" height="1269" viewBox="0 0 1919 1269" fill="none" xmlns="http://www.w3.org/2000/svg">
<path opacity="0.2" d="M193.079 0L193.079 1374M0 118.474L1918.8 118.474M0 237.693L1918.8 237.693M0 356.912L1918.8 356.912M0 476.131L1918.8 476.131M0 595.35L1918.8 595.35M0 714.569L1918.8 714.57M0 833.789L1918.8 833.789M0 953.008L1918.8 953.008M0 1072.23L1918.8 1072.23M0 1191.45L1918.8 1191.45M0 1310.66L1918.8 1310.66M384.959 0L384.959 1374M576.839 0L576.839 1374M768.72 0L768.719 1374M960.6 0L960.6 1374M1152.48 0V1374M1344.36 0L1344.36 1374M1536.24 0L1536.24 1374M1728.12 0L1728.12 1374M1920 0L1920 1374" stroke="#888888" style="stroke:#888888;stroke:color(display-p3 0.5321 0.5321 0.5321);stroke-opacity:1;"/>
</svg>
